G04 Layer_Color=32768*
%FSLAX24Y24*%
%MOIN*%
G70*
G01*
G75*
%ADD93C,0.0039*%
%ADD94C,0.0020*%
D93*
X30709Y58071D02*
X31102D01*
X30906Y57874D02*
Y58268D01*
D94*
X71594Y32283D02*
G03*
X71594Y32283I-138J0D01*
G01*
X68772Y50394D02*
G03*
X68772Y50394I-138J0D01*
G01*
X65524Y32283D02*
G03*
X65524Y32283I-138J0D01*
G01*
X59587D02*
G03*
X59587Y32283I-138J0D01*
G01*
X56043Y50197D02*
G03*
X56043Y50197I-138J0D01*
G01*
X65590Y50394D02*
G03*
X65590Y50394I-138J0D01*
G01*
X58799Y82874D02*
G03*
X58799Y82874I-138J0D01*
G01*
X76909Y67551D02*
G03*
X76909Y67551I-138J0D01*
G01*
Y72669D02*
G03*
X76909Y72669I-138J0D01*
G01*
Y46488D02*
G03*
X76909Y46488I-138J0D01*
G01*
Y77787D02*
G03*
X76909Y77787I-138J0D01*
G01*
Y82906D02*
G03*
X76909Y82906I-138J0D01*
G01*
X64705Y86811D02*
G03*
X64705Y86811I-138J0D01*
G01*
X29567Y57047D02*
Y59094D01*
X32244Y57047D02*
Y59094D01*
X29567D02*
X32244D01*
X29567Y57047D02*
X32244D01*
X71457Y32087D02*
Y32480D01*
X71260Y32283D02*
X71654D01*
X68634Y50197D02*
Y50591D01*
X68438Y50394D02*
X68831D01*
X65386Y32087D02*
Y32480D01*
X65189Y32283D02*
X65583D01*
X59449Y32087D02*
Y32480D01*
X59252Y32283D02*
X59646D01*
X55906Y50000D02*
Y50394D01*
X55709Y50197D02*
X56102D01*
X65452D02*
Y50591D01*
X65255Y50394D02*
X65649D01*
X58465Y82874D02*
X58858D01*
X58661Y82677D02*
Y83071D01*
X76575Y67551D02*
X76968D01*
X76772Y67354D02*
Y67748D01*
X76575Y72669D02*
X76968D01*
X76772Y72472D02*
Y72866D01*
X76575Y46488D02*
X76968D01*
X76772Y46291D02*
Y46685D01*
X76575Y77787D02*
X76968D01*
X76772Y77591D02*
Y77984D01*
X76575Y82906D02*
X76968D01*
X76772Y82709D02*
Y83102D01*
X64567Y86614D02*
Y87008D01*
X64370Y86811D02*
X64764D01*
M02*
