M48
;Layer_Color=9474304
;FILE_FORMAT=2:5
INCH,LZ
;TYPE=PLATED
T1F00S00C0.02500
T2F00S00C0.02800
T3F00S00C0.03000
T4F00S00C0.03150
T5F00S00C0.03937
T6F00S00C0.04000
T7F00S00C0.04331
T8F00S00C0.04724
T9F00S00C0.06299
;TYPE=NON_PLATED
T10F00S00C0.16535
%
T01
X0337Y0440472
X03464Y0454
X04556Y04578
X05181Y03657
X05601Y05381
X05075Y0588
X03587Y05471
X03554Y05317
X03326Y0527
X03293Y05583
X03297Y06017
X03199Y06034
X03521Y04729
X02525Y05254
X03115Y05974
X03Y065
X03092Y06639
X02573Y06718
X02606Y0645607
X02158Y06826
X02191Y06951
X0231028Y0762
X03376Y07296
X03502Y07325
X03391Y06625
X03367Y06458
X0316Y06272
X04463Y07645
X04956Y07643
T02
X0529528Y0343528
X03446Y05526
X0318898Y0551181
X0267717Y053937
X0259842Y061811
X03446Y0628
X03719Y06276
X0425197Y0633858
X0606299Y0625984
X07503Y06264
X06139Y08357
T03
X0331457Y0377953
X0341457
X0704567Y0492126
X0714567
X06191Y05
X06091
X0587278Y05
X0577278
X0395669Y0616142
X0385669
X0443661Y0649606
X0453661
X0455431Y0736221
X0445431
X0425197
X0415197
X0475666
X0485666
X05059Y07361
X05159
X0513924Y0649606
X0523924
X0549055
X0559055
X0488793
X0478793
T04
X0351457Y0377953
X0580709Y0454724
X0590709
X0643622
X0653622
X0706535
X0716535
X0724567Y0492126
X0691345Y0488937
X0681345
X0659522
X0649522
Y0518937
X0659522
X0681345
X0691345
X06291Y05
X0597277Y05
X0564055Y0486969
X0554055
Y0516969
X0564055
X0372047Y0574646
Y0584646
X0405669Y0616142
X0463661Y0649606
X0465431Y0736221
X0435197
X0495666
X05259Y07361
X0533924Y0649606
X0498793
X0569055
X069185Y0677165
X070185
X0601614Y082374
Y083374
X0571614
Y082374
T05
X0271339Y0326772
X0281339
X0291339
X0226378Y0372795
Y0382795
Y0392795
Y0402795
X0225393Y0440472
Y0450472
Y0460472
X0305118Y044685
X0391839Y0399685
X0410211
X0428584
X0446957
Y0360315
X0428584
X0410211
X0391839
X038748Y0326772
X039748
X040748
X0350551
X0340551
X0330551
X0635923Y0560173
X0657173
X0680118Y0566929
X0699803
X0723215Y05516
X07429
X0733Y06046
X0713315
X0657173Y0599543
X0635923
X0614673
X0593423
X0572941
X0553256
X053337
X051037
X0488622
Y0560173
X051037
X053337
X0553256
X0572941
X0593423
X0614673
X0517823Y0513858
X0498925
X0480028
Y0474488
X0498925
X0517823
X046113
X0442232
X0423335
X0399606Y0480315
X0379921
X0423335Y0513858
X0442232
X046113
X0466622Y0560173
X0444622
X0422622
Y0599543
X0444622
X0466622
X0305118Y0525591
X0225393Y0510472
Y0500472
Y0490472
Y0480472
Y0470472
Y0557167
Y0567167
Y0577167
Y0587167
Y0597167
Y0607167
Y0617167
Y0627167
X0224409Y0670077
Y0680077
Y0690077
Y0700077
Y0710077
Y0720077
Y0730077
Y0740077
X042126Y0771732
X0438356
X0455451
X0472547
X0562992Y0751969
X0588689Y0744173
X061428
X065365Y0700866
Y0661496
X061428Y0783543
X0588689
X0562992Y0783465
X05413Y080653
Y08459
X0472547Y0811102
X0455451
X0438356
X042126
X0224409Y0806772
Y0816772
Y0826772
Y0836772
Y0846772
Y0856772
Y0796772
Y0786772
T06
X0279528Y0647559
Y0657559
Y0667559
Y0677559
Y0687559
Y0697559
Y0707559
Y0717559
Y0727559
Y0737559
Y0747559
Y0757559
Y0767559
Y0777559
X0344528
Y0767559
Y0757559
Y0747559
Y0737559
Y0727559
Y0717559
Y0707559
Y0697559
Y0687559
Y0677559
Y0667559
Y0657559
Y0647559
Y0787559
Y0797559
Y0807559
Y0817559
Y0827559
Y0837559
X0279528
Y0827559
Y0817559
Y0807559
Y0797559
Y0787559
T07
X0767717Y0515433
Y0525433
Y0535433
X0606299Y0645354
Y0655354
Y0665354
X069685Y0642795
Y0632795
Y0850079
Y0860079
Y0870079
X0596614Y0866142
X0586614
X0576614
X0462913Y086811
X0452913
X0442913
X0432913
X0422913
X0412913
X0402913
T08
X0279528Y0387795
X0299213
X0584331Y0322835
X0604331
X0643701
X0663701
X0704409
X0724409
X0767717Y0454724
Y0474724
Y0665354
Y0685354
Y0716535
Y0736535
Y0767717
X0700787Y0747638
X065748Y0763386
Y0803543
X0700787Y0787795
X0767717Y0787717
Y0818898
Y0838898
X0655827Y086811
X0635827
T09
X0555956Y03641
X06032
Y0412131
X0579578Y0420005
X0555956Y0412131
X0632878
X06565Y0420006
X0680122Y0412131
X07098
X0733422Y0420006
X0757044Y0412131
Y03641
X07098
X0680122
X0632878
T10
X0224409Y0324803
X076378Y0326772
Y0870079
X0279528Y086811
M30
