G04 Layer_Color=65535*
%FSLAX24Y24*%
%MOIN*%
G70*
G01*
G75*
%ADD13C,0.0100*%
%ADD48C,0.0118*%
%ADD49C,0.0098*%
%ADD50C,0.0157*%
%ADD51C,0.0079*%
%ADD52C,0.0040*%
%ADD53C,0.0200*%
%ADD54C,0.0080*%
%ADD55C,0.0059*%
%ADD56C,0.0059*%
%ADD57C,0.0050*%
G36*
X70395Y63310D02*
X70395Y63140D01*
X70250Y63285D01*
X70395Y63430D01*
X70395Y63310D01*
D02*
G37*
G36*
X23031Y54295D02*
X22441Y54295D01*
X22736Y54591D01*
X23031Y54295D01*
D02*
G37*
G36*
Y42626D02*
X22441Y42626D01*
X22736Y42921D01*
X23031Y42626D01*
D02*
G37*
G36*
X61350Y64545D02*
X61350Y64375D01*
X61205Y64520D01*
X61350Y64665D01*
X61350Y64545D01*
D02*
G37*
G36*
X22244Y86803D02*
X21949Y87098D01*
X22539Y87098D01*
X22244Y86803D01*
D02*
G37*
G36*
X40499Y86009D02*
X40179Y86009D01*
X40009Y86009D01*
X40254Y86254D01*
X40499Y86009D01*
D02*
G37*
G36*
X22244Y75134D02*
X21949Y75429D01*
X22539Y75429D01*
X22244Y75134D01*
D02*
G37*
D13*
X29621Y51719D02*
G03*
X31770Y51765I1167J-4278D01*
G01*
X31299Y38780D02*
G03*
X31299Y38780I-2362J0D01*
G01*
X67734Y50037D02*
G03*
X67734Y50744I0J354D01*
G01*
X55006Y49840D02*
G03*
X55006Y50547I0J354D01*
G01*
X64552Y50037D02*
G03*
X64552Y50744I0J354D01*
G01*
X59019Y81974D02*
G03*
X58311Y81974I-354J0D01*
G01*
X29213Y51772D02*
X31969D01*
Y52953D01*
X29213D02*
X31969D01*
X29213Y51772D02*
Y52953D01*
X70641Y31083D02*
Y31583D01*
X70241D02*
X70641D01*
X70241Y31083D02*
Y31583D01*
X69241Y33283D02*
X73441D01*
X69241Y31083D02*
X73441D01*
Y34083D01*
X69241D02*
X73441D01*
X69241Y31083D02*
Y34083D01*
X72241Y31083D02*
Y31583D01*
X72641D01*
Y31083D02*
Y31583D01*
X69434Y49394D02*
Y51394D01*
X67734D02*
X69434D01*
X67734Y49394D02*
X69434D01*
X67734D02*
Y50037D01*
Y50744D02*
Y51394D01*
X72104Y36413D02*
X72779D01*
X73904D02*
X75104D01*
X71504D02*
X72304D01*
X73304Y37813D02*
X73342Y42001D01*
X71504Y40013D02*
X71904D01*
X72104Y39613D01*
X70904Y40013D02*
Y40613D01*
Y40013D02*
X71504D01*
X72104Y39613D02*
X72304Y40213D01*
X72504Y39613D01*
X72704Y40213D01*
X72904Y39613D01*
X73104Y40213D01*
X73304Y39613D01*
X73504Y40213D01*
X73704Y39613D01*
X73904Y40213D01*
X74104Y39613D01*
X74304Y40213D01*
X74504Y39613D01*
X74704Y40013D01*
X75704D01*
Y40613D01*
X70291Y42552D02*
X76393D01*
Y35032D02*
Y42552D01*
X70291Y35032D02*
Y42552D01*
Y35032D02*
X76393D01*
X73304Y37813D02*
X73878Y36402D01*
X64570Y31083D02*
Y31583D01*
X64170D02*
X64570D01*
X64170Y31083D02*
Y31583D01*
X63170Y33283D02*
X67370D01*
X63170Y31083D02*
X67370D01*
Y34083D01*
X63170D02*
X67370D01*
X63170Y31083D02*
Y34083D01*
X66170Y31083D02*
Y31583D01*
X66570D01*
Y31083D02*
Y31583D01*
X58633Y31083D02*
Y31583D01*
X58233D02*
X58633D01*
X58233Y31083D02*
Y31583D01*
X57233Y33283D02*
X61433D01*
X57233Y31083D02*
X61433D01*
Y34083D01*
X57233D02*
X61433D01*
X57233Y31083D02*
Y34083D01*
X60233Y31083D02*
Y31583D01*
X60633D01*
Y31083D02*
Y31583D01*
X56706Y49197D02*
Y51197D01*
X55006D02*
X56706D01*
X55006Y49197D02*
X56706D01*
X55006D02*
Y49840D01*
Y50547D02*
Y51197D01*
X66252Y49394D02*
Y51394D01*
X64552D02*
X66252D01*
X64552Y49394D02*
X66252D01*
X64552D02*
Y50037D01*
Y50744D02*
Y51394D01*
X64412Y36413D02*
X65087D01*
X66212D02*
X67412D01*
X63812D02*
X64612D01*
X65612Y37813D02*
X65650Y42001D01*
X63812Y40013D02*
X64212D01*
X64412Y39613D01*
X63212Y40013D02*
Y40613D01*
Y40013D02*
X63812D01*
X64412Y39613D02*
X64612Y40213D01*
X64812Y39613D01*
X65012Y40213D01*
X65212Y39613D01*
X65412Y40213D01*
X65612Y39613D01*
X65812Y40213D01*
X66012Y39613D01*
X66212Y40213D01*
X66412Y39613D01*
X66612Y40213D01*
X66812Y39613D01*
X67012Y40013D01*
X68012D01*
Y40613D01*
X62599Y42552D02*
X68701D01*
Y35032D02*
Y42552D01*
X62599Y35032D02*
Y42552D01*
Y35032D02*
X68701D01*
X65612Y37813D02*
X66185Y36402D01*
X56721Y87364D02*
X60681D01*
X60711Y86294D02*
Y87724D01*
X60401Y85984D02*
X60711Y86294D01*
X56941Y85984D02*
X60401D01*
X56661Y86264D02*
X56941Y85984D01*
X56661Y87724D02*
X60711D01*
X56661Y86264D02*
Y87724D01*
X57661Y83674D02*
X59661D01*
X57661Y81974D02*
Y83674D01*
X59661Y81974D02*
Y83674D01*
X59019Y81974D02*
X59661D01*
X57661D02*
X58311D01*
X64567Y81693D02*
X66929D01*
X64567Y75000D02*
Y81693D01*
Y75000D02*
X66929D01*
Y81693D01*
X77472Y66735D02*
X77972D01*
X77472Y66335D02*
Y66735D01*
Y66335D02*
X77972D01*
X75772Y65335D02*
Y69535D01*
X77972Y65335D02*
Y69535D01*
X74972D02*
X77972D01*
X74972Y65335D02*
Y69535D01*
Y65335D02*
X77972D01*
X77472Y68335D02*
X77972D01*
X77472D02*
Y68735D01*
X77972D01*
X77472Y71854D02*
X77972D01*
X77472Y71454D02*
Y71854D01*
Y71454D02*
X77972D01*
X75772Y70454D02*
Y74654D01*
X77972Y70454D02*
Y74654D01*
X74972D02*
X77972D01*
X74972Y70454D02*
Y74654D01*
Y70454D02*
X77972D01*
X77472Y73454D02*
X77972D01*
X77472D02*
Y73854D01*
X77972D01*
X77472Y45672D02*
X77972D01*
X77472Y45272D02*
Y45672D01*
Y45272D02*
X77972D01*
X75772Y44272D02*
Y48472D01*
X77972Y44272D02*
Y48472D01*
X74972D02*
X77972D01*
X74972Y44272D02*
Y48472D01*
Y44272D02*
X77972D01*
X77472Y47272D02*
X77972D01*
X77472D02*
Y47672D01*
X77972D01*
X77522Y50523D02*
Y54483D01*
X76452Y50493D02*
X77882D01*
X76142Y50803D02*
X76452Y50493D01*
X76142Y50803D02*
Y54263D01*
X76422Y54543D01*
X77882Y50493D02*
Y54543D01*
X76422D02*
X77882D01*
X77472Y76972D02*
X77972D01*
X77472Y76572D02*
Y76972D01*
Y76572D02*
X77972D01*
X75772Y75572D02*
Y79772D01*
X77972Y75572D02*
Y79772D01*
X74972D02*
X77972D01*
X74972Y75572D02*
Y79772D01*
Y75572D02*
X77972D01*
X77472Y78572D02*
X77972D01*
X77472D02*
Y78972D01*
X77972D01*
X68935Y84068D02*
Y88028D01*
X68575Y88058D02*
X70005D01*
X70315Y87748D01*
Y84288D02*
Y87748D01*
X70035Y84008D02*
X70315Y84288D01*
X68575Y84008D02*
Y88058D01*
Y84008D02*
X70035D01*
X77472Y82090D02*
X77972D01*
X77472Y81690D02*
Y82090D01*
Y81690D02*
X77972D01*
X75772Y80690D02*
Y84890D01*
X77972Y80690D02*
Y84890D01*
X74972D02*
X77972D01*
X74972Y80690D02*
Y84890D01*
Y80690D02*
X77972D01*
X77472Y83690D02*
X77972D01*
X77472D02*
Y84090D01*
X77972D01*
X71063Y72047D02*
Y81496D01*
X69095Y72047D02*
X71063D01*
X69095D02*
Y81496D01*
X71063D01*
X65383Y87511D02*
Y88011D01*
Y87511D02*
X65783D01*
Y88011D01*
X62583Y85811D02*
X66783D01*
X62583Y88011D02*
X66783D01*
X62583Y85011D02*
Y88011D01*
Y85011D02*
X66783D01*
Y88011D01*
X63783Y87511D02*
Y88011D01*
X63383Y87511D02*
X63783D01*
X63383D02*
Y88011D01*
X56720Y36413D02*
X57395D01*
X58520D02*
X59720D01*
X56120D02*
X56920D01*
X57920Y37813D02*
X57958Y42001D01*
X56120Y40013D02*
X56520D01*
X56720Y39613D01*
X55520Y40013D02*
Y40613D01*
Y40013D02*
X56120D01*
X56720Y39613D02*
X56920Y40213D01*
X57120Y39613D01*
X57320Y40213D01*
X57520Y39613D01*
X57720Y40213D01*
X57920Y39613D01*
X58120Y40213D01*
X58320Y39613D01*
X58520Y40213D01*
X58720Y39613D01*
X58920Y40213D01*
X59120Y39613D01*
X59320Y40013D01*
X60320D01*
Y40613D01*
X54907Y42552D02*
X61009D01*
Y35032D02*
Y42552D01*
X54907Y35032D02*
Y42552D01*
Y35032D02*
X61009D01*
X57920Y37813D02*
X58493Y36402D01*
X30180Y50660D02*
Y50060D01*
X30480D01*
X30580Y50160D01*
Y50260D01*
X30480Y50360D01*
X30180D01*
X30480D01*
X30580Y50460D01*
Y50560D01*
X30480Y50660D01*
X30180D01*
X30780Y50060D02*
X30980D01*
X30880D01*
Y50660D01*
X30780Y50560D01*
X25742Y42094D02*
Y41495D01*
X26042D01*
X26142Y41595D01*
Y41694D01*
X26042Y41794D01*
X25742D01*
X26042D01*
X26142Y41894D01*
Y41994D01*
X26042Y42094D01*
X25742D01*
X26342D02*
Y41595D01*
X26442Y41495D01*
X26642D01*
X26742Y41595D01*
Y42094D01*
X26942D02*
X27341D01*
Y41994D01*
X26942Y41595D01*
Y41495D01*
X27341D01*
X27541D02*
X27741D01*
X27641D01*
Y42094D01*
X27541Y41994D01*
X37201Y50856D02*
X37101Y50956D01*
X36901D01*
X36801Y50856D01*
Y50456D01*
X36901Y50356D01*
X37101D01*
X37201Y50456D01*
X37401Y50356D02*
X37601D01*
X37501D01*
Y50956D01*
X37401Y50856D01*
X68591Y58398D02*
X68491Y58498D01*
X68291D01*
X68191Y58398D01*
Y57998D01*
X68291Y57898D01*
X68491D01*
X68591Y57998D01*
X69191Y57898D02*
X68791D01*
X69191Y58298D01*
Y58398D01*
X69091Y58498D01*
X68891D01*
X68791Y58398D01*
X71911Y62165D02*
X71811Y62265D01*
X71611D01*
X71511Y62165D01*
Y61765D01*
X71611Y61665D01*
X71811D01*
X71911Y61765D01*
X72410Y61665D02*
Y62265D01*
X72111Y61965D01*
X72510D01*
X68510Y69831D02*
Y69232D01*
X68810D01*
X68910Y69331D01*
Y69731D01*
X68810Y69831D01*
X68510D01*
X69110Y69232D02*
X69310D01*
X69210D01*
Y69831D01*
X69110Y69731D01*
X57446Y47547D02*
Y46947D01*
X57746D01*
X57846Y47047D01*
Y47447D01*
X57746Y47547D01*
X57446D01*
X58446Y46947D02*
X58046D01*
X58446Y47347D01*
Y47447D01*
X58346Y47547D01*
X58146D01*
X58046Y47447D01*
X63737Y47547D02*
Y46947D01*
X64037D01*
X64137Y47047D01*
Y47447D01*
X64037Y47547D01*
X63737D01*
X64337Y47447D02*
X64437Y47547D01*
X64637D01*
X64737Y47447D01*
Y47347D01*
X64637Y47247D01*
X64537D01*
X64637D01*
X64737Y47147D01*
Y47047D01*
X64637Y46947D01*
X64437D01*
X64337Y47047D01*
X70029Y47547D02*
Y46947D01*
X70328D01*
X70428Y47047D01*
Y47447D01*
X70328Y47547D01*
X70029D01*
X70928Y46947D02*
Y47547D01*
X70628Y47247D01*
X71028D01*
X55964Y79682D02*
Y79082D01*
X56264D01*
X56364Y79182D01*
Y79582D01*
X56264Y79682D01*
X55964D01*
X56964D02*
X56564D01*
Y79382D01*
X56764Y79482D01*
X56864D01*
X56964Y79382D01*
Y79182D01*
X56864Y79082D01*
X56664D01*
X56564Y79182D01*
X53715Y85928D02*
Y85328D01*
X54015D01*
X54115Y85428D01*
Y85828D01*
X54015Y85928D01*
X53715D01*
X54715D02*
X54515Y85828D01*
X54315Y85628D01*
Y85428D01*
X54415Y85328D01*
X54615D01*
X54715Y85428D01*
Y85528D01*
X54615Y85628D01*
X54315D01*
X69544Y82446D02*
X69144D01*
Y82147D01*
X69344D01*
X69144D01*
Y81847D01*
X69744D02*
X69943D01*
X69844D01*
Y82446D01*
X69744Y82346D01*
X65598Y82804D02*
X65198D01*
Y82504D01*
X65398D01*
X65198D01*
Y82204D01*
X66198D02*
X65798D01*
X66198Y82604D01*
Y82704D01*
X66098Y82804D01*
X65898D01*
X65798Y82704D01*
X54611Y52972D02*
X54810D01*
X54710D01*
Y52372D01*
X54611D01*
X54810D01*
X55510Y52872D02*
X55410Y52972D01*
X55210D01*
X55110Y52872D01*
Y52472D01*
X55210Y52372D01*
X55410D01*
X55510Y52472D01*
X55710Y52372D02*
X55910D01*
X55810D01*
Y52972D01*
X55710Y52872D01*
X64157Y53169D02*
X64357D01*
X64257D01*
Y52569D01*
X64157D01*
X64357D01*
X65057Y53069D02*
X64957Y53169D01*
X64757D01*
X64657Y53069D01*
Y52669D01*
X64757Y52569D01*
X64957D01*
X65057Y52669D01*
X65657Y52569D02*
X65257D01*
X65657Y52969D01*
Y53069D01*
X65557Y53169D01*
X65357D01*
X65257Y53069D01*
X67339Y53169D02*
X67539D01*
X67439D01*
Y52569D01*
X67339D01*
X67539D01*
X68239Y53069D02*
X68139Y53169D01*
X67939D01*
X67839Y53069D01*
Y52669D01*
X67939Y52569D01*
X68139D01*
X68239Y52669D01*
X68439Y53069D02*
X68539Y53169D01*
X68739D01*
X68839Y53069D01*
Y52969D01*
X68739Y52869D01*
X68639D01*
X68739D01*
X68839Y52769D01*
Y52669D01*
X68739Y52569D01*
X68539D01*
X68439Y52669D01*
X56012Y80674D02*
Y80874D01*
Y80774D01*
X56611D01*
Y80674D01*
Y80874D01*
X56112Y81574D02*
X56012Y81474D01*
Y81274D01*
X56112Y81174D01*
X56511D01*
X56611Y81274D01*
Y81474D01*
X56511Y81574D01*
X56611Y82074D02*
X56012D01*
X56312Y81774D01*
Y82174D01*
X23456Y76732D02*
X23656D01*
X23556D01*
Y77232D01*
X23656Y77332D01*
X23756D01*
X23856Y77232D01*
X23256Y76832D02*
X23156Y76732D01*
X22956D01*
X22856Y76832D01*
Y77232D01*
X22956Y77332D01*
X23156D01*
X23256Y77232D01*
Y76832D01*
X23456Y65063D02*
X23656D01*
X23556D01*
Y65563D01*
X23656Y65663D01*
X23756D01*
X23856Y65563D01*
X23256Y65663D02*
X23056D01*
X23156D01*
Y65063D01*
X23256Y65163D01*
X21524Y64662D02*
X21324D01*
X21424D01*
Y64162D01*
X21324Y64062D01*
X21224D01*
X21124Y64162D01*
X22124Y64062D02*
X21724D01*
X22124Y64462D01*
Y64562D01*
X22024Y64662D01*
X21824D01*
X21724Y64562D01*
X21524Y52992D02*
X21324D01*
X21424D01*
Y52492D01*
X21324Y52392D01*
X21224D01*
X21124Y52492D01*
X21724Y52892D02*
X21824Y52992D01*
X22024D01*
X22124Y52892D01*
Y52792D01*
X22024Y52692D01*
X21924D01*
X22024D01*
X22124Y52592D01*
Y52492D01*
X22024Y52392D01*
X21824D01*
X21724Y52492D01*
X21623Y42294D02*
X21423D01*
X21523D01*
Y41795D01*
X21423Y41695D01*
X21323D01*
X21223Y41795D01*
X22222Y42294D02*
X21823D01*
Y41994D01*
X22023Y42094D01*
X22122D01*
X22222Y41994D01*
Y41795D01*
X22122Y41695D01*
X21923D01*
X21823Y41795D01*
X69585Y62329D02*
X69385D01*
X69485D01*
Y61830D01*
X69385Y61730D01*
X69285D01*
X69185Y61830D01*
X70185Y62329D02*
X69985Y62229D01*
X69785Y62029D01*
Y61830D01*
X69885Y61730D01*
X70085D01*
X70185Y61830D01*
Y61929D01*
X70085Y62029D01*
X69785D01*
X60595Y67980D02*
X60395D01*
X60495D01*
Y67480D01*
X60395Y67380D01*
X60295D01*
X60195Y67480D01*
X60795Y67980D02*
X61195D01*
Y67880D01*
X60795Y67480D01*
Y67380D01*
X73772Y80890D02*
Y80690D01*
Y80790D01*
X74272D01*
X74372Y80690D01*
Y80590D01*
X74272Y80490D01*
X74072Y81090D02*
Y81489D01*
X74372Y81689D02*
X73772D01*
Y81989D01*
X73872Y82089D01*
X74072D01*
X74172Y81989D01*
Y81689D01*
X74372Y82389D02*
Y82589D01*
X74272Y82689D01*
X74072D01*
X73972Y82589D01*
Y82389D01*
X74072Y82289D01*
X74272D01*
X74372Y82389D01*
X73972Y82889D02*
X74272D01*
X74372Y82989D01*
X74272Y83089D01*
X74372Y83189D01*
X74272Y83289D01*
X73972D01*
X74372Y83789D02*
Y83589D01*
X74272Y83489D01*
X74072D01*
X73972Y83589D01*
Y83789D01*
X74072Y83889D01*
X74172D01*
Y83489D01*
X73972Y84089D02*
X74372D01*
X74172D01*
X74072Y84189D01*
X73972Y84289D01*
Y84389D01*
X74372Y84688D02*
Y84888D01*
Y84788D01*
X73772D01*
X73872Y84688D01*
X73872Y75872D02*
Y75672D01*
Y75772D01*
X74372D01*
X74472Y75672D01*
Y75572D01*
X74372Y75472D01*
X74172Y76071D02*
Y76471D01*
X74472Y76671D02*
X73872D01*
Y76971D01*
X73972Y77071D01*
X74172D01*
X74272Y76971D01*
Y76671D01*
X74472Y77371D02*
Y77571D01*
X74372Y77671D01*
X74172D01*
X74072Y77571D01*
Y77371D01*
X74172Y77271D01*
X74372D01*
X74472Y77371D01*
X74072Y77871D02*
X74372D01*
X74472Y77971D01*
X74372Y78071D01*
X74472Y78171D01*
X74372Y78271D01*
X74072D01*
X74472Y78771D02*
Y78571D01*
X74372Y78471D01*
X74172D01*
X74072Y78571D01*
Y78771D01*
X74172Y78871D01*
X74272D01*
Y78471D01*
X74072Y79070D02*
X74472D01*
X74272D01*
X74172Y79170D01*
X74072Y79270D01*
Y79370D01*
X74472Y80070D02*
Y79670D01*
X74072Y80070D01*
X73972D01*
X73872Y79970D01*
Y79770D01*
X73972Y79670D01*
X74022Y70803D02*
Y70603D01*
Y70703D01*
X74522D01*
X74622Y70603D01*
Y70504D01*
X74522Y70404D01*
X74322Y71003D02*
Y71403D01*
X74622Y71603D02*
X74022D01*
Y71903D01*
X74122Y72003D01*
X74322D01*
X74422Y71903D01*
Y71603D01*
X74622Y72303D02*
Y72503D01*
X74522Y72603D01*
X74322D01*
X74222Y72503D01*
Y72303D01*
X74322Y72203D01*
X74522D01*
X74622Y72303D01*
X74222Y72803D02*
X74522D01*
X74622Y72903D01*
X74522Y73003D01*
X74622Y73103D01*
X74522Y73203D01*
X74222D01*
X74622Y73702D02*
Y73503D01*
X74522Y73403D01*
X74322D01*
X74222Y73503D01*
Y73702D01*
X74322Y73802D01*
X74422D01*
Y73403D01*
X74222Y74002D02*
X74622D01*
X74422D01*
X74322Y74102D01*
X74222Y74202D01*
Y74302D01*
X74122Y74602D02*
X74022Y74702D01*
Y74902D01*
X74122Y75002D01*
X74222D01*
X74322Y74902D01*
Y74802D01*
Y74902D01*
X74422Y75002D01*
X74522D01*
X74622Y74902D01*
Y74702D01*
X74522Y74602D01*
X73972Y65435D02*
Y65235D01*
Y65335D01*
X74472D01*
X74572Y65235D01*
Y65135D01*
X74472Y65035D01*
X74272Y65635D02*
Y66035D01*
X74572Y66235D02*
X73972D01*
Y66535D01*
X74072Y66635D01*
X74272D01*
X74372Y66535D01*
Y66235D01*
X74572Y66935D02*
Y67135D01*
X74472Y67235D01*
X74272D01*
X74172Y67135D01*
Y66935D01*
X74272Y66835D01*
X74472D01*
X74572Y66935D01*
X74172Y67435D02*
X74472D01*
X74572Y67535D01*
X74472Y67635D01*
X74572Y67735D01*
X74472Y67835D01*
X74172D01*
X74572Y68334D02*
Y68134D01*
X74472Y68034D01*
X74272D01*
X74172Y68134D01*
Y68334D01*
X74272Y68434D01*
X74372D01*
Y68034D01*
X74172Y68634D02*
X74572D01*
X74372D01*
X74272Y68734D01*
X74172Y68834D01*
Y68934D01*
X74572Y69534D02*
X73972D01*
X74272Y69234D01*
Y69634D01*
X73613Y44526D02*
Y44326D01*
Y44426D01*
X74113D01*
X74213Y44326D01*
Y44226D01*
X74113Y44126D01*
X73913Y44726D02*
Y45126D01*
X74213Y45326D02*
X73613D01*
Y45626D01*
X73713Y45725D01*
X73913D01*
X74013Y45626D01*
Y45326D01*
X73613Y46225D02*
Y46025D01*
X73713Y45925D01*
X74113D01*
X74213Y46025D01*
Y46225D01*
X74113Y46325D01*
X73713D01*
X73613Y46225D01*
Y46525D02*
X74213D01*
X74013Y46725D01*
X74213Y46925D01*
X73613D01*
Y47525D02*
Y47125D01*
X74213D01*
Y47525D01*
X73913Y47125D02*
Y47325D01*
X74213Y47725D02*
X73613D01*
Y48025D01*
X73713Y48125D01*
X73913D01*
X74013Y48025D01*
Y47725D01*
Y47925D02*
X74213Y48125D01*
X73913Y48325D02*
Y48724D01*
X73613Y48924D02*
X74213D01*
Y49324D01*
Y49524D02*
X73613D01*
X73813Y49724D01*
X73613Y49924D01*
X74213D01*
Y50124D02*
Y50324D01*
Y50224D01*
X73613D01*
X73713Y50124D01*
X65542Y43483D02*
X65342D01*
X65442D01*
Y42983D01*
X65342Y42883D01*
X65242D01*
X65142Y42983D01*
X65742Y43483D02*
Y42883D01*
Y43083D01*
X66142Y43483D01*
X65842Y43183D01*
X66142Y42883D01*
X66342D02*
X66542D01*
X66442D01*
Y43483D01*
X66342Y43383D01*
X72724Y43723D02*
X72524D01*
X72624D01*
Y43223D01*
X72524Y43123D01*
X72424D01*
X72324Y43223D01*
X72924Y43723D02*
Y43123D01*
Y43323D01*
X73324Y43723D01*
X73024Y43423D01*
X73324Y43123D01*
X73524Y43623D02*
X73624Y43723D01*
X73824D01*
X73924Y43623D01*
Y43523D01*
X73824Y43423D01*
X73724D01*
X73824D01*
X73924Y43323D01*
Y43223D01*
X73824Y43123D01*
X73624D01*
X73524Y43223D01*
X68315Y34038D02*
X67715D01*
X67915D01*
X68315Y33639D01*
X68015Y33939D01*
X67715Y33639D01*
X68315Y33039D02*
Y33439D01*
X68015D01*
Y33239D01*
Y33439D01*
X67715D01*
Y32439D02*
Y32839D01*
X68115Y32439D01*
X68215D01*
X68315Y32539D01*
Y32739D01*
X68215Y32839D01*
X62378Y34038D02*
X61778D01*
X61978D01*
X62378Y33639D01*
X62078Y33939D01*
X61778Y33639D01*
X62378Y33039D02*
Y33439D01*
X62078D01*
Y33239D01*
Y33439D01*
X61778D01*
X62278Y32839D02*
X62378Y32739D01*
Y32539D01*
X62278Y32439D01*
X62178D01*
X62078Y32539D01*
Y32639D01*
Y32539D01*
X61978Y32439D01*
X61878D01*
X61778Y32539D01*
Y32739D01*
X61878Y32839D01*
X74386Y34038D02*
X73786D01*
X73986D01*
X74386Y33639D01*
X74086Y33939D01*
X73786Y33639D01*
X74386Y33039D02*
Y33439D01*
X74086D01*
Y33239D01*
Y33439D01*
X73786D01*
Y32539D02*
X74386D01*
X74086Y32839D01*
Y32439D01*
X36130Y60319D02*
Y59720D01*
X36530D01*
X37029D02*
X36830D01*
X36730Y59820D01*
Y60019D01*
X36830Y60119D01*
X37029D01*
X37129Y60019D01*
Y59920D01*
X36730D01*
X37729Y60319D02*
Y59720D01*
X37429D01*
X37329Y59820D01*
Y60019D01*
X37429Y60119D01*
X37729D01*
X37929Y60319D02*
X38329D01*
X38129D01*
Y59720D01*
X38829D02*
X38629D01*
X38529Y59820D01*
Y60019D01*
X38629Y60119D01*
X38829D01*
X38929Y60019D01*
Y59920D01*
X38529D01*
X39129Y59720D02*
X39429D01*
X39529Y59820D01*
X39429Y59920D01*
X39229D01*
X39129Y60019D01*
X39229Y60119D01*
X39529D01*
X39829Y60219D02*
Y60119D01*
X39729D01*
X39928D01*
X39829D01*
Y59820D01*
X39928Y59720D01*
X40228D02*
X40428D01*
X40328D01*
Y60319D01*
X40228Y60219D01*
X48031Y75047D02*
Y75447D01*
X47931Y75547D01*
X47732D01*
X47632Y75447D01*
Y75047D01*
X47732Y74947D01*
X47931D01*
X47832Y75147D02*
X48031Y74947D01*
X47931D02*
X48031Y75047D01*
X48631Y74947D02*
X48231D01*
X48631Y75347D01*
Y75447D01*
X48531Y75547D01*
X48331D01*
X48231Y75447D01*
X45008Y75047D02*
Y75447D01*
X44908Y75547D01*
X44708D01*
X44608Y75447D01*
Y75047D01*
X44708Y74947D01*
X44908D01*
X44808Y75147D02*
X45008Y74947D01*
X44908D02*
X45008Y75047D01*
X45208Y75447D02*
X45308Y75547D01*
X45508D01*
X45608Y75447D01*
Y75347D01*
X45508Y75247D01*
X45408D01*
X45508D01*
X45608Y75147D01*
Y75047D01*
X45508Y74947D01*
X45308D01*
X45208Y75047D01*
X41985D02*
Y75447D01*
X41885Y75547D01*
X41685D01*
X41585Y75447D01*
Y75047D01*
X41685Y74947D01*
X41885D01*
X41785Y75147D02*
X41985Y74947D01*
X41885D02*
X41985Y75047D01*
X42484Y74947D02*
Y75547D01*
X42184Y75247D01*
X42584D01*
X33611Y39220D02*
Y39620D01*
X33511Y39720D01*
X33311D01*
X33211Y39620D01*
Y39220D01*
X33311Y39120D01*
X33511D01*
X33411Y39320D02*
X33611Y39120D01*
X33511D02*
X33611Y39220D01*
X34210Y39720D02*
X33810D01*
Y39420D01*
X34010Y39520D01*
X34110D01*
X34210Y39420D01*
Y39220D01*
X34110Y39120D01*
X33910D01*
X33810Y39220D01*
X48344Y66386D02*
Y66785D01*
X48244Y66885D01*
X48044D01*
X47944Y66785D01*
Y66386D01*
X48044Y66286D01*
X48244D01*
X48144Y66486D02*
X48344Y66286D01*
X48244D02*
X48344Y66386D01*
X48544Y66885D02*
X48944D01*
Y66785D01*
X48544Y66386D01*
Y66286D01*
X51857Y66386D02*
Y66785D01*
X51757Y66885D01*
X51557D01*
X51457Y66785D01*
Y66386D01*
X51557Y66286D01*
X51757D01*
X51657Y66486D02*
X51857Y66286D01*
X51757D02*
X51857Y66386D01*
X52057Y66785D02*
X52157Y66885D01*
X52357D01*
X52457Y66785D01*
Y66686D01*
X52357Y66586D01*
X52457Y66486D01*
Y66386D01*
X52357Y66286D01*
X52157D01*
X52057Y66386D01*
Y66486D01*
X52157Y66586D01*
X52057Y66686D01*
Y66785D01*
X52157Y66586D02*
X52357D01*
X55370Y66386D02*
Y66785D01*
X55270Y66885D01*
X55070D01*
X54971Y66785D01*
Y66386D01*
X55070Y66286D01*
X55270D01*
X55170Y66486D02*
X55370Y66286D01*
X55270D02*
X55370Y66386D01*
X55570D02*
X55670Y66286D01*
X55870D01*
X55970Y66386D01*
Y66785D01*
X55870Y66885D01*
X55670D01*
X55570Y66785D01*
Y66686D01*
X55670Y66586D01*
X55970D01*
X69135Y83258D02*
Y83658D01*
X69035Y83758D01*
X68835D01*
X68735Y83658D01*
Y83258D01*
X68835Y83158D01*
X69035D01*
X68935Y83358D02*
X69135Y83158D01*
X69035D02*
X69135Y83258D01*
X69335Y83158D02*
X69535D01*
X69435D01*
Y83758D01*
X69335Y83658D01*
X69835D02*
X69935Y83758D01*
X70135D01*
X70235Y83658D01*
Y83258D01*
X70135Y83158D01*
X69935D01*
X69835Y83258D01*
Y83658D01*
X58193Y51425D02*
Y51825D01*
X58093Y51925D01*
X57893D01*
X57793Y51825D01*
Y51425D01*
X57893Y51325D01*
X58093D01*
X57993Y51525D02*
X58193Y51325D01*
X58093D02*
X58193Y51425D01*
X58393Y51325D02*
X58592D01*
X58493D01*
Y51925D01*
X58393Y51825D01*
X58892Y51325D02*
X59092D01*
X58992D01*
Y51925D01*
X58892Y51825D01*
X61375Y51425D02*
Y51825D01*
X61275Y51925D01*
X61075D01*
X60975Y51825D01*
Y51425D01*
X61075Y51325D01*
X61275D01*
X61175Y51525D02*
X61375Y51325D01*
X61275D02*
X61375Y51425D01*
X61575Y51325D02*
X61775D01*
X61675D01*
Y51925D01*
X61575Y51825D01*
X62474Y51325D02*
X62075D01*
X62474Y51725D01*
Y51825D01*
X62375Y51925D01*
X62175D01*
X62075Y51825D01*
X70922Y50638D02*
Y51037D01*
X70822Y51137D01*
X70622D01*
X70522Y51037D01*
Y50638D01*
X70622Y50538D01*
X70822D01*
X70722Y50738D02*
X70922Y50538D01*
X70822D02*
X70922Y50638D01*
X71122Y50538D02*
X71321D01*
X71221D01*
Y51137D01*
X71122Y51037D01*
X71621D02*
X71721Y51137D01*
X71921D01*
X72021Y51037D01*
Y50937D01*
X71921Y50837D01*
X71821D01*
X71921D01*
X72021Y50738D01*
Y50638D01*
X71921Y50538D01*
X71721D01*
X71621Y50638D01*
X58161Y84814D02*
Y85214D01*
X58061Y85314D01*
X57861D01*
X57761Y85214D01*
Y84814D01*
X57861Y84714D01*
X58061D01*
X57961Y84914D02*
X58161Y84714D01*
X58061D02*
X58161Y84814D01*
X58361Y84714D02*
X58561D01*
X58461D01*
Y85314D01*
X58361Y85214D01*
X59161Y84714D02*
Y85314D01*
X58861Y85014D01*
X59261D01*
X39179Y63092D02*
Y63492D01*
X39079Y63592D01*
X38879D01*
X38780Y63492D01*
Y63092D01*
X38879Y62992D01*
X39079D01*
X38979Y63192D02*
X39179Y62992D01*
X39079D02*
X39179Y63092D01*
X39379Y62892D02*
X39779D01*
X39979Y63592D02*
Y62992D01*
X40379D01*
X40979Y63592D02*
X40579D01*
Y62992D01*
X40979D01*
X40579Y63292D02*
X40779D01*
X41179Y63592D02*
Y62992D01*
X41479D01*
X41579Y63092D01*
Y63492D01*
X41479Y63592D01*
X41179D01*
X41779Y62892D02*
X42178D01*
X42378Y63592D02*
X42778D01*
X42578D01*
Y62992D01*
X43378Y63592D02*
X42978D01*
Y62992D01*
X43378D01*
X42978Y63292D02*
X43178D01*
X43978Y63492D02*
X43878Y63592D01*
X43678D01*
X43578Y63492D01*
Y63392D01*
X43678Y63292D01*
X43878D01*
X43978Y63192D01*
Y63092D01*
X43878Y62992D01*
X43678D01*
X43578Y63092D01*
X44178Y63592D02*
X44578D01*
X44378D01*
Y62992D01*
X44778D02*
X44978D01*
X44878D01*
Y63592D01*
X44778Y63492D01*
X44291Y40748D02*
Y41348D01*
X44591D01*
X44691Y41248D01*
Y41048D01*
X44591Y40948D01*
X44291D01*
X44491D02*
X44691Y40748D01*
X44891D02*
X45091D01*
X44991D01*
Y41348D01*
X44891Y41248D01*
X46869Y81849D02*
Y82449D01*
X47169D01*
X47269Y82349D01*
Y82149D01*
X47169Y82049D01*
X46869D01*
X47069D02*
X47269Y81849D01*
X47869D02*
X47469D01*
X47869Y82249D01*
Y82349D01*
X47769Y82449D01*
X47569D01*
X47469Y82349D01*
X45160Y81849D02*
Y82449D01*
X45459D01*
X45559Y82349D01*
Y82149D01*
X45459Y82049D01*
X45160D01*
X45359D02*
X45559Y81849D01*
X45759Y82349D02*
X45859Y82449D01*
X46059D01*
X46159Y82349D01*
Y82249D01*
X46059Y82149D01*
X45959D01*
X46059D01*
X46159Y82049D01*
Y81949D01*
X46059Y81849D01*
X45859D01*
X45759Y81949D01*
X43450Y81849D02*
Y82449D01*
X43750D01*
X43850Y82349D01*
Y82149D01*
X43750Y82049D01*
X43450D01*
X43650D02*
X43850Y81849D01*
X44350D02*
Y82449D01*
X44050Y82149D01*
X44450D01*
X41740Y81849D02*
Y82449D01*
X42040D01*
X42140Y82349D01*
Y82149D01*
X42040Y82049D01*
X41740D01*
X41940D02*
X42140Y81849D01*
X42740Y82449D02*
X42340D01*
Y82149D01*
X42540Y82249D01*
X42640D01*
X42740Y82149D01*
Y81949D01*
X42640Y81849D01*
X42440D01*
X42340Y81949D01*
X42717Y40748D02*
Y41348D01*
X43016D01*
X43116Y41248D01*
Y41048D01*
X43016Y40948D01*
X42717D01*
X42916D02*
X43116Y40748D01*
X43716Y41348D02*
X43516Y41248D01*
X43316Y41048D01*
Y40848D01*
X43416Y40748D01*
X43616D01*
X43716Y40848D01*
Y40948D01*
X43616Y41048D01*
X43316D01*
X41948Y52124D02*
Y52724D01*
X42248D01*
X42348Y52624D01*
Y52424D01*
X42248Y52324D01*
X41948D01*
X42148D02*
X42348Y52124D01*
X42548Y52724D02*
X42948D01*
Y52624D01*
X42548Y52224D01*
Y52124D01*
X43898Y52165D02*
Y52765D01*
X44198D01*
X44298Y52665D01*
Y52465D01*
X44198Y52365D01*
X43898D01*
X44098D02*
X44298Y52165D01*
X44497Y52665D02*
X44597Y52765D01*
X44797D01*
X44897Y52665D01*
Y52565D01*
X44797Y52465D01*
X44897Y52365D01*
Y52265D01*
X44797Y52165D01*
X44597D01*
X44497Y52265D01*
Y52365D01*
X44597Y52465D01*
X44497Y52565D01*
Y52665D01*
X44597Y52465D02*
X44797D01*
X45727Y52124D02*
Y52724D01*
X46027D01*
X46127Y52624D01*
Y52424D01*
X46027Y52324D01*
X45727D01*
X45927D02*
X46127Y52124D01*
X46327Y52224D02*
X46427Y52124D01*
X46627D01*
X46727Y52224D01*
Y52624D01*
X46627Y52724D01*
X46427D01*
X46327Y52624D01*
Y52524D01*
X46427Y52424D01*
X46727D01*
X47244Y52165D02*
Y52765D01*
X47544D01*
X47644Y52665D01*
Y52465D01*
X47544Y52365D01*
X47244D01*
X47444D02*
X47644Y52165D01*
X47844D02*
X48044D01*
X47944D01*
Y52765D01*
X47844Y52665D01*
X48344D02*
X48444Y52765D01*
X48644D01*
X48744Y52665D01*
Y52265D01*
X48644Y52165D01*
X48444D01*
X48344Y52265D01*
Y52665D01*
X49204Y52203D02*
Y52803D01*
X49504D01*
X49604Y52703D01*
Y52503D01*
X49504Y52403D01*
X49204D01*
X49404D02*
X49604Y52203D01*
X49804D02*
X50004D01*
X49904D01*
Y52803D01*
X49804Y52703D01*
X50304Y52203D02*
X50504D01*
X50404D01*
Y52803D01*
X50304Y52703D01*
X51181Y52165D02*
Y52765D01*
X51481D01*
X51581Y52665D01*
Y52465D01*
X51481Y52365D01*
X51181D01*
X51381D02*
X51581Y52165D01*
X51781D02*
X51981D01*
X51881D01*
Y52765D01*
X51781Y52665D01*
X52681Y52165D02*
X52281D01*
X52681Y52565D01*
Y52665D01*
X52581Y52765D01*
X52381D01*
X52281Y52665D01*
X40635Y40707D02*
Y41307D01*
X40935D01*
X41035Y41207D01*
Y41007D01*
X40935Y40907D01*
X40635D01*
X40835D02*
X41035Y40707D01*
X41235D02*
X41435D01*
X41335D01*
Y41307D01*
X41235Y41207D01*
X41735D02*
X41835Y41307D01*
X42035D01*
X42135Y41207D01*
Y41107D01*
X42035Y41007D01*
X41935D01*
X42035D01*
X42135Y40907D01*
Y40807D01*
X42035Y40707D01*
X41835D01*
X41735Y40807D01*
X38798Y40707D02*
Y41307D01*
X39098D01*
X39198Y41207D01*
Y41007D01*
X39098Y40907D01*
X38798D01*
X38998D02*
X39198Y40707D01*
X39398D02*
X39598D01*
X39498D01*
Y41307D01*
X39398Y41207D01*
X40198Y40707D02*
Y41307D01*
X39898Y41007D01*
X40298D01*
X64979Y70825D02*
Y71425D01*
X65279D01*
X65379Y71325D01*
Y71125D01*
X65279Y71025D01*
X64979D01*
X65179D02*
X65379Y70825D01*
X65579D02*
X65779D01*
X65679D01*
Y71425D01*
X65579Y71325D01*
X66479Y71425D02*
X66079D01*
Y71125D01*
X66279Y71225D01*
X66379D01*
X66479Y71125D01*
Y70925D01*
X66379Y70825D01*
X66179D01*
X66079Y70925D01*
X41877Y60693D02*
Y61293D01*
X42176D01*
X42276Y61193D01*
Y60993D01*
X42176Y60893D01*
X41877D01*
X42077D02*
X42276Y60693D01*
X42476D02*
X42676D01*
X42576D01*
Y61293D01*
X42476Y61193D01*
X43376Y61293D02*
X43176Y61193D01*
X42976Y60993D01*
Y60793D01*
X43076Y60693D01*
X43276D01*
X43376Y60793D01*
Y60893D01*
X43276Y60993D01*
X42976D01*
X44077Y60693D02*
Y61293D01*
X44376D01*
X44476Y61193D01*
Y60993D01*
X44376Y60893D01*
X44077D01*
X44277D02*
X44476Y60693D01*
X44676D02*
X44876D01*
X44776D01*
Y61293D01*
X44676Y61193D01*
X45176Y61293D02*
X45576D01*
Y61193D01*
X45176Y60793D01*
Y60693D01*
X46277D02*
Y61293D01*
X46576D01*
X46676Y61193D01*
Y60993D01*
X46576Y60893D01*
X46277D01*
X46477D02*
X46676Y60693D01*
X46876D02*
X47076D01*
X46976D01*
Y61293D01*
X46876Y61193D01*
X47376D02*
X47476Y61293D01*
X47676D01*
X47776Y61193D01*
Y61093D01*
X47676Y60993D01*
X47776Y60893D01*
Y60793D01*
X47676Y60693D01*
X47476D01*
X47376Y60793D01*
Y60893D01*
X47476Y60993D01*
X47376Y61093D01*
Y61193D01*
X47476Y60993D02*
X47676D01*
X48477Y60693D02*
Y61293D01*
X48776D01*
X48876Y61193D01*
Y60993D01*
X48776Y60893D01*
X48477D01*
X48677D02*
X48876Y60693D01*
X49076D02*
X49276D01*
X49176D01*
Y61293D01*
X49076Y61193D01*
X49576Y60793D02*
X49676Y60693D01*
X49876D01*
X49976Y60793D01*
Y61193D01*
X49876Y61293D01*
X49676D01*
X49576Y61193D01*
Y61093D01*
X49676Y60993D01*
X49976D01*
X50651Y60693D02*
Y61293D01*
X50951D01*
X51051Y61193D01*
Y60993D01*
X50951Y60893D01*
X50651D01*
X50851D02*
X51051Y60693D01*
X51651D02*
X51251D01*
X51651Y61093D01*
Y61193D01*
X51551Y61293D01*
X51351D01*
X51251Y61193D01*
X51851D02*
X51951Y61293D01*
X52151D01*
X52251Y61193D01*
Y60793D01*
X52151Y60693D01*
X51951D01*
X51851Y60793D01*
Y61193D01*
X52951Y60693D02*
Y61293D01*
X53251D01*
X53351Y61193D01*
Y60993D01*
X53251Y60893D01*
X52951D01*
X53151D02*
X53351Y60693D01*
X53951D02*
X53551D01*
X53951Y61093D01*
Y61193D01*
X53851Y61293D01*
X53651D01*
X53551Y61193D01*
X54151Y60693D02*
X54351D01*
X54251D01*
Y61293D01*
X54151Y61193D01*
X54940Y60693D02*
Y61293D01*
X55240D01*
X55340Y61193D01*
Y60993D01*
X55240Y60893D01*
X54940D01*
X55140D02*
X55340Y60693D01*
X55940D02*
X55540D01*
X55940Y61093D01*
Y61193D01*
X55840Y61293D01*
X55640D01*
X55540Y61193D01*
X56539Y60693D02*
X56140D01*
X56539Y61093D01*
Y61193D01*
X56439Y61293D01*
X56240D01*
X56140Y61193D01*
X56908Y60693D02*
Y61293D01*
X57208D01*
X57308Y61193D01*
Y60993D01*
X57208Y60893D01*
X56908D01*
X57108D02*
X57308Y60693D01*
X57908D02*
X57508D01*
X57908Y61093D01*
Y61193D01*
X57808Y61293D01*
X57608D01*
X57508Y61193D01*
X58108D02*
X58208Y61293D01*
X58408D01*
X58508Y61193D01*
Y61093D01*
X58408Y60993D01*
X58308D01*
X58408D01*
X58508Y60893D01*
Y60793D01*
X58408Y60693D01*
X58208D01*
X58108Y60793D01*
X58957Y60693D02*
Y61293D01*
X59257D01*
X59357Y61193D01*
Y60993D01*
X59257Y60893D01*
X58957D01*
X59157D02*
X59357Y60693D01*
X59956D02*
X59556D01*
X59956Y61093D01*
Y61193D01*
X59856Y61293D01*
X59656D01*
X59556Y61193D01*
X60456Y60693D02*
Y61293D01*
X60156Y60993D01*
X60556D01*
X61082Y60693D02*
Y61293D01*
X61382D01*
X61482Y61193D01*
Y60993D01*
X61382Y60893D01*
X61082D01*
X61282D02*
X61482Y60693D01*
X62081D02*
X61681D01*
X62081Y61093D01*
Y61193D01*
X61981Y61293D01*
X61781D01*
X61681Y61193D01*
X62681Y61293D02*
X62281D01*
Y60993D01*
X62481Y61093D01*
X62581D01*
X62681Y60993D01*
Y60793D01*
X62581Y60693D01*
X62381D01*
X62281Y60793D01*
X63207Y60693D02*
Y61293D01*
X63507D01*
X63607Y61193D01*
Y60993D01*
X63507Y60893D01*
X63207D01*
X63407D02*
X63607Y60693D01*
X64206D02*
X63807D01*
X64206Y61093D01*
Y61193D01*
X64106Y61293D01*
X63906D01*
X63807Y61193D01*
X64806Y61293D02*
X64606Y61193D01*
X64406Y60993D01*
Y60793D01*
X64506Y60693D01*
X64706D01*
X64806Y60793D01*
Y60893D01*
X64706Y60993D01*
X64406D01*
X65332Y60693D02*
Y61293D01*
X65632D01*
X65732Y61193D01*
Y60993D01*
X65632Y60893D01*
X65332D01*
X65532D02*
X65732Y60693D01*
X66331D02*
X65932D01*
X66331Y61093D01*
Y61193D01*
X66231Y61293D01*
X66031D01*
X65932Y61193D01*
X66531Y61293D02*
X66931D01*
Y61193D01*
X66531Y60793D01*
Y60693D01*
X58483Y79093D02*
Y79693D01*
X58783D01*
X58883Y79593D01*
Y79393D01*
X58783Y79293D01*
X58483D01*
X58683D02*
X58883Y79093D01*
X59483D02*
X59083D01*
X59483Y79493D01*
Y79593D01*
X59383Y79693D01*
X59183D01*
X59083Y79593D01*
X59683D02*
X59783Y79693D01*
X59983D01*
X60083Y79593D01*
Y79493D01*
X59983Y79393D01*
X60083Y79293D01*
Y79193D01*
X59983Y79093D01*
X59783D01*
X59683Y79193D01*
Y79293D01*
X59783Y79393D01*
X59683Y79493D01*
Y79593D01*
X59783Y79393D02*
X59983D01*
X61042Y79093D02*
Y79693D01*
X61342D01*
X61442Y79593D01*
Y79393D01*
X61342Y79293D01*
X61042D01*
X61242D02*
X61442Y79093D01*
X62042D02*
X61642D01*
X62042Y79493D01*
Y79593D01*
X61942Y79693D01*
X61742D01*
X61642Y79593D01*
X62242Y79193D02*
X62342Y79093D01*
X62542D01*
X62642Y79193D01*
Y79593D01*
X62542Y79693D01*
X62342D01*
X62242Y79593D01*
Y79493D01*
X62342Y79393D01*
X62642D01*
X31099Y33772D02*
X31199Y33872D01*
Y34072D01*
X31099Y34172D01*
X30999D01*
X30899Y34072D01*
Y33872D01*
X30799Y33772D01*
X30699D01*
X30599Y33872D01*
Y34072D01*
X30699Y34172D01*
X30599Y33572D02*
X31199D01*
Y33272D01*
X31099Y33172D01*
X30899D01*
X30799Y33272D01*
Y33572D01*
X30599Y32973D02*
Y32773D01*
Y32873D01*
X31199D01*
X31099Y32973D01*
X37020Y33772D02*
X37120Y33872D01*
Y34072D01*
X37020Y34172D01*
X36920D01*
X36820Y34072D01*
Y33872D01*
X36720Y33772D01*
X36620D01*
X36520Y33872D01*
Y34072D01*
X36620Y34172D01*
X36520Y33572D02*
X37120D01*
Y33272D01*
X37020Y33172D01*
X36820D01*
X36720Y33272D01*
Y33572D01*
X36520Y32573D02*
Y32973D01*
X36920Y32573D01*
X37020D01*
X37120Y32673D01*
Y32873D01*
X37020Y32973D01*
X42713Y33772D02*
X42813Y33872D01*
Y34072D01*
X42713Y34172D01*
X42613D01*
X42513Y34072D01*
Y33872D01*
X42413Y33772D01*
X42313D01*
X42213Y33872D01*
Y34072D01*
X42313Y34172D01*
X42213Y33572D02*
X42813D01*
Y33272D01*
X42713Y33172D01*
X42513D01*
X42413Y33272D01*
Y33572D01*
X42713Y32973D02*
X42813Y32873D01*
Y32673D01*
X42713Y32573D01*
X42613D01*
X42513Y32673D01*
Y32773D01*
Y32673D01*
X42413Y32573D01*
X42313D01*
X42213Y32673D01*
Y32873D01*
X42313Y32973D01*
X75812Y61448D02*
Y61848D01*
Y61648D01*
X76412D01*
X75912Y62448D02*
X75812Y62348D01*
Y62148D01*
X75912Y62048D01*
X76312D01*
X76412Y62148D01*
Y62348D01*
X76312Y62448D01*
X76112D01*
Y62248D01*
X75812Y63048D02*
Y62648D01*
X76412D01*
Y63048D01*
X76112Y62648D02*
Y62848D01*
X76412Y63248D02*
X75812D01*
X76412Y63648D01*
X75812D01*
X76412Y63848D02*
Y64048D01*
Y63948D01*
X75812D01*
X75912Y63848D01*
X51378Y33474D02*
X51778D01*
X51578D01*
Y32874D01*
X51978Y33474D02*
Y32974D01*
X52078Y32874D01*
X52278D01*
X52378Y32974D01*
Y33474D01*
X52977Y33374D02*
X52877Y33474D01*
X52678D01*
X52578Y33374D01*
Y32974D01*
X52678Y32874D01*
X52877D01*
X52977Y32974D01*
Y33174D01*
X52778D01*
X53577Y33474D02*
X53177D01*
Y32874D01*
X53577D01*
X53177Y33174D02*
X53377D01*
X53777Y32874D02*
Y33474D01*
X54177Y32874D01*
Y33474D01*
X54377Y32874D02*
X54577D01*
X54477D01*
Y33474D01*
X54377Y33374D01*
X46063Y33474D02*
X46463D01*
X46263D01*
Y32874D01*
X46663Y33474D02*
Y32974D01*
X46763Y32874D01*
X46963D01*
X47063Y32974D01*
Y33474D01*
X47263D02*
Y33074D01*
X47463Y32874D01*
X47662Y33074D01*
Y33474D01*
X48262Y33374D02*
X48162Y33474D01*
X47962D01*
X47862Y33374D01*
Y32974D01*
X47962Y32874D01*
X48162D01*
X48262Y32974D01*
X48862Y33374D02*
X48762Y33474D01*
X48562D01*
X48462Y33374D01*
Y32974D01*
X48562Y32874D01*
X48762D01*
X48862Y32974D01*
X49062Y32874D02*
X49262D01*
X49162D01*
Y33474D01*
X49062Y33374D01*
X75912Y56677D02*
Y57077D01*
Y56877D01*
X76512D01*
X75912Y57277D02*
X76312D01*
X76512Y57477D01*
X76312Y57677D01*
X75912D01*
X76012Y58277D02*
X75912Y58177D01*
Y57977D01*
X76012Y57877D01*
X76412D01*
X76512Y57977D01*
Y58177D01*
X76412Y58277D01*
X76012Y58876D02*
X75912Y58776D01*
Y58577D01*
X76012Y58477D01*
X76412D01*
X76512Y58577D01*
Y58776D01*
X76412Y58876D01*
X76512Y59076D02*
Y59276D01*
Y59176D01*
X75912D01*
X76012Y59076D01*
X27718Y85181D02*
Y84681D01*
X27818Y84581D01*
X28018D01*
X28118Y84681D01*
Y85181D01*
X28318Y84581D02*
X28517D01*
X28418D01*
Y85181D01*
X28318Y85081D01*
X29661Y60156D02*
Y59656D01*
X29760Y59556D01*
X29960D01*
X30060Y59656D01*
Y60156D01*
X30660Y59556D02*
X30260D01*
X30660Y59956D01*
Y60056D01*
X30560Y60156D01*
X30360D01*
X30260Y60056D01*
X77827Y49538D02*
Y49938D01*
X77627Y50138D01*
X77427Y49938D01*
Y49538D01*
X77227Y50138D02*
X77027D01*
X77127D01*
Y49538D01*
X77227Y49638D01*
X47736Y88006D02*
X47636D01*
X47436Y87806D01*
X47636Y87606D01*
X47736D01*
X47436Y87806D02*
X47136D01*
Y87406D02*
Y87206D01*
Y87306D01*
X47736D01*
X47636Y87406D01*
X67133Y86161D02*
X67733D01*
X67533D01*
X67133Y86561D01*
X67433Y86261D01*
X67733Y86561D01*
X67133Y87161D02*
Y86761D01*
X67433D01*
Y86961D01*
Y86761D01*
X67733D01*
Y87361D02*
Y87561D01*
Y87461D01*
X67133D01*
X67233Y87361D01*
X57560Y43656D02*
X57360D01*
X57460D01*
Y43156D01*
X57360Y43056D01*
X57260D01*
X57160Y43156D01*
X57760Y43656D02*
Y43056D01*
Y43256D01*
X58160Y43656D01*
X57860Y43356D01*
X58160Y43056D01*
X58759D02*
X58360D01*
X58759Y43456D01*
Y43556D01*
X58660Y43656D01*
X58460D01*
X58360Y43556D01*
X44831Y66386D02*
Y66785D01*
X44731Y66885D01*
X44531D01*
X44431Y66785D01*
Y66386D01*
X44531Y66286D01*
X44731D01*
X44631Y66486D02*
X44831Y66286D01*
X44731D02*
X44831Y66386D01*
X45431Y66885D02*
X45231Y66785D01*
X45031Y66586D01*
Y66386D01*
X45131Y66286D01*
X45331D01*
X45431Y66386D01*
Y66486D01*
X45331Y66586D01*
X45031D01*
X51055Y75035D02*
Y75435D01*
X50955Y75535D01*
X50755D01*
X50655Y75435D01*
Y75035D01*
X50755Y74935D01*
X50955D01*
X50855Y75135D02*
X51055Y74935D01*
X50955D02*
X51055Y75035D01*
X51255Y74935D02*
X51455D01*
X51355D01*
Y75535D01*
X51255Y75435D01*
X72901Y56865D02*
X72801Y56965D01*
X72601D01*
X72501Y56865D01*
Y56465D01*
X72601Y56365D01*
X72801D01*
X72901Y56465D01*
X73101Y56865D02*
X73201Y56965D01*
X73400D01*
X73500Y56865D01*
Y56765D01*
X73400Y56665D01*
X73300D01*
X73400D01*
X73500Y56565D01*
Y56465D01*
X73400Y56365D01*
X73201D01*
X73101Y56465D01*
X40201Y87411D02*
X40401D01*
X40301D01*
Y88011D01*
X40201Y87911D01*
X46311Y87981D02*
X46711D01*
Y87881D01*
X46311Y87481D01*
Y87381D01*
X25994Y39094D02*
Y38580D01*
X25737Y38837D02*
X26251D01*
D48*
X40945Y48032D02*
G03*
X40945Y48032I-1969J0D01*
G01*
X70965Y56693D02*
G03*
X70965Y56693I-1969J0D01*
G01*
X74284Y60460D02*
G03*
X74284Y60460I-1969J0D01*
G01*
X75274Y55160D02*
G03*
X75274Y55160I-1969J0D01*
G01*
X38790Y36819D02*
Y39181D01*
X39578Y36819D02*
Y39181D01*
X39184Y36228D02*
Y36819D01*
Y39181D02*
Y39772D01*
X38790Y39181D02*
X39578D01*
X38790Y36819D02*
X39578D01*
X39606Y49016D02*
X40354D01*
X39173Y46102D02*
Y49961D01*
X39291Y46142D02*
Y49882D01*
X39409Y46102D02*
Y49921D01*
X39488Y46142D02*
Y49843D01*
X39567Y46220D02*
Y49843D01*
X39685Y46220D02*
Y49843D01*
X39803Y46299D02*
Y49803D01*
X39921Y46339D02*
Y49724D01*
X40039Y46417D02*
Y49646D01*
X40157Y46496D02*
Y49528D01*
X40276Y46575D02*
Y49488D01*
X40354Y46693D02*
Y49331D01*
X40433Y46772D02*
Y49291D01*
X40551Y46890D02*
Y49094D01*
X40512Y49055D02*
Y49252D01*
X40630Y47047D02*
Y48976D01*
X40709Y47205D02*
Y48898D01*
X40827Y47402D02*
Y48661D01*
X39843Y49528D02*
X40157D01*
X40627Y36819D02*
Y39181D01*
X41415Y36819D02*
Y39181D01*
X41021Y36228D02*
Y36819D01*
Y39181D02*
Y39772D01*
X40627Y39181D02*
X41415D01*
X40627Y36819D02*
X41415D01*
X45719Y48236D02*
Y50598D01*
X46507Y48236D02*
Y50598D01*
X46113Y47646D02*
Y48236D01*
Y50598D02*
Y51189D01*
X45719Y50598D02*
X46507D01*
X45719Y48236D02*
X46507D01*
X41940D02*
Y50598D01*
X42727Y48236D02*
Y50598D01*
X42333Y47646D02*
Y48236D01*
Y50598D02*
Y51189D01*
X41940Y50598D02*
X42727D01*
X41940Y48236D02*
X42727D01*
X46861Y77961D02*
Y80323D01*
X47648Y77961D02*
Y80323D01*
X47255Y77370D02*
Y77961D01*
Y80323D02*
Y80913D01*
X46861Y80323D02*
X47648D01*
X46861Y77961D02*
X47648D01*
X45151D02*
Y80323D01*
X45939Y77961D02*
Y80323D01*
X45545Y77370D02*
Y77961D01*
Y80323D02*
Y80913D01*
X45151Y80323D02*
X45939D01*
X45151Y77961D02*
X45939D01*
X43442D02*
Y80323D01*
X44229Y77961D02*
Y80323D01*
X43836Y77370D02*
Y77961D01*
Y80323D02*
Y80913D01*
X43442Y80323D02*
X44229D01*
X43442Y77961D02*
X44229D01*
X41732D02*
Y80323D01*
X42520Y77961D02*
Y80323D01*
X42126Y77370D02*
Y77961D01*
Y80323D02*
Y80913D01*
X41732Y80323D02*
X42520D01*
X41732Y77961D02*
X42520D01*
X65324Y56805D02*
Y59167D01*
X66111Y56805D02*
Y59167D01*
X65717Y56214D02*
Y56805D01*
Y59167D02*
Y59757D01*
X65324Y59167D02*
X66111D01*
X65324Y56805D02*
X66111D01*
X63199D02*
Y59167D01*
X63986Y56805D02*
Y59167D01*
X63592Y56214D02*
Y56805D01*
Y59167D02*
Y59757D01*
X63199Y59167D02*
X63986D01*
X63199Y56805D02*
X63986D01*
X58949D02*
Y59167D01*
X59736Y56805D02*
Y59167D01*
X59342Y56214D02*
Y56805D01*
Y59167D02*
Y59757D01*
X58949Y59167D02*
X59736D01*
X58949Y56805D02*
X59736D01*
X61074D02*
Y59167D01*
X61861Y56805D02*
Y59167D01*
X61467Y56214D02*
Y56805D01*
Y59167D02*
Y59757D01*
X61074Y59167D02*
X61861D01*
X61074Y56805D02*
X61861D01*
X54932D02*
Y59167D01*
X55719Y56805D02*
Y59167D01*
X55326Y56214D02*
Y56805D01*
Y59167D02*
Y59757D01*
X54932Y59167D02*
X55719D01*
X54932Y56805D02*
X55719D01*
X56900D02*
Y59167D01*
X57688Y56805D02*
Y59167D01*
X57294Y56214D02*
Y56805D01*
Y59167D02*
Y59757D01*
X56900Y59167D02*
X57688D01*
X56900Y56805D02*
X57688D01*
X50643D02*
Y59167D01*
X51431Y56805D02*
Y59167D01*
X51037Y56214D02*
Y56805D01*
Y59167D02*
Y59757D01*
X50643Y59167D02*
X51431D01*
X50643Y56805D02*
X51431D01*
X52943D02*
Y59167D01*
X53731Y56805D02*
Y59167D01*
X53337Y56214D02*
Y56805D01*
Y59167D02*
Y59757D01*
X52943Y59167D02*
X53731D01*
X52943Y56805D02*
X53731D01*
X41869D02*
Y59167D01*
X42656Y56805D02*
Y59167D01*
X42262Y56214D02*
Y56805D01*
Y59167D02*
Y59757D01*
X41869Y59167D02*
X42656D01*
X41869Y56805D02*
X42656D01*
X44068D02*
Y59167D01*
X44856Y56805D02*
Y59167D01*
X44462Y56214D02*
Y56805D01*
Y59167D02*
Y59757D01*
X44068Y59167D02*
X44856D01*
X44068Y56805D02*
X44856D01*
X46269D02*
Y59167D01*
X47056Y56805D02*
Y59167D01*
X46662Y56214D02*
Y56805D01*
Y59167D02*
Y59757D01*
X46269Y59167D02*
X47056D01*
X46269Y56805D02*
X47056D01*
X48468D02*
Y59167D01*
X49256Y56805D02*
Y59167D01*
X48862Y56214D02*
Y56805D01*
Y59167D02*
Y59757D01*
X48468Y59167D02*
X49256D01*
X48468Y56805D02*
X49256D01*
X61034Y75205D02*
Y77567D01*
X61822Y75205D02*
Y77567D01*
X61428Y74614D02*
Y75205D01*
Y77567D02*
Y78157D01*
X61034Y77567D02*
X61822D01*
X61034Y75205D02*
X61822D01*
X54280Y83503D02*
Y83603D01*
X53980Y83453D02*
Y83603D01*
X54330Y83453D02*
Y83603D01*
Y83653D01*
X53930Y83403D02*
Y83653D01*
X54380Y83403D02*
Y83703D01*
X53880Y83353D02*
Y83703D01*
X54430Y83353D02*
Y83753D01*
X53830Y83303D02*
Y83753D01*
X53780Y83303D02*
Y83803D01*
X53736Y81440D02*
Y83803D01*
X54130Y83803D02*
Y84393D01*
Y80850D02*
Y81440D01*
X53930Y83553D02*
X54330D01*
X53980Y83603D02*
X54280D01*
X53930Y83653D02*
X54330D01*
X53930Y83403D02*
X54380D01*
X53880Y83703D02*
X54380D01*
X53880Y83353D02*
X54430D01*
X53830Y83753D02*
X54430D01*
X53830Y83303D02*
X53880D01*
X54480D01*
X53780Y83803D02*
X54480D01*
X53736Y83253D02*
X54524D01*
X53980Y83453D02*
X54330D01*
X53736Y81440D02*
X54524D01*
X53736Y83803D02*
X54524D01*
X53980Y83503D02*
X54280D01*
X54480Y83303D02*
X54480Y83803D01*
X54524Y83803D02*
X54524Y81440D01*
X58475Y75205D02*
Y77567D01*
X59263Y75205D02*
Y77567D01*
X58869Y74614D02*
Y75205D01*
Y77567D02*
Y78157D01*
X58475Y77567D02*
X59263D01*
X58475Y75205D02*
X59263D01*
X55984Y77244D02*
X56614D01*
X55984Y77480D02*
X56614D01*
X55984Y77402D02*
X56575D01*
X56024Y77323D02*
X56575D01*
X55945Y77165D02*
X56654D01*
X55945Y77559D02*
X56654D01*
X56614Y77244D02*
Y77480D01*
X55984Y77402D02*
Y77480D01*
X56299Y75197D02*
Y75984D01*
Y77559D02*
Y78346D01*
X55945Y75984D02*
Y77559D01*
X56654Y75984D02*
Y77559D01*
X56575Y77402D02*
X56575Y77323D01*
X55945Y75984D02*
X56654Y75984D01*
X64971Y66937D02*
Y69299D01*
X65759Y66937D02*
Y69299D01*
X65365Y66346D02*
Y66937D01*
Y69299D02*
Y69890D01*
X64971Y69299D02*
X65759D01*
X64971Y66937D02*
X65759D01*
X44302Y36819D02*
Y39181D01*
X45089Y36819D02*
Y39181D01*
X44696Y36228D02*
Y36819D01*
Y39181D02*
Y39772D01*
X44302Y39181D02*
X45089D01*
X44302Y36819D02*
X45089D01*
X42465D02*
Y39181D01*
X43252Y36819D02*
Y39181D01*
X42858Y36228D02*
Y36819D01*
Y39181D02*
Y39772D01*
X42465Y39181D02*
X43252D01*
X42465Y36819D02*
X43252D01*
X43830Y48236D02*
Y50598D01*
X44617Y48236D02*
Y50598D01*
X44223Y47646D02*
Y48236D01*
Y50598D02*
Y51189D01*
X43830Y50598D02*
X44617D01*
X43830Y48236D02*
X44617D01*
X47609D02*
Y50598D01*
X48396Y48236D02*
Y50598D01*
X48003Y47646D02*
Y48236D01*
Y50598D02*
Y51189D01*
X47609Y50598D02*
X48396D01*
X47609Y48236D02*
X48396D01*
X49499D02*
Y50598D01*
X50286Y48236D02*
Y50598D01*
X49893Y47646D02*
Y48236D01*
Y50598D02*
Y51189D01*
X49499Y50598D02*
X50286D01*
X49499Y48236D02*
X50286D01*
X51389D02*
Y50598D01*
X52176Y48236D02*
Y50598D01*
X51782Y47646D02*
Y48236D01*
Y50598D02*
Y51189D01*
X51389Y50598D02*
X52176D01*
X51389Y48236D02*
X52176D01*
X69626Y57677D02*
X70374D01*
X69193Y54764D02*
Y58622D01*
X69311Y54803D02*
Y58543D01*
X69429Y54764D02*
Y58583D01*
X69508Y54803D02*
Y58504D01*
X69587Y54882D02*
Y58504D01*
X69705Y54882D02*
Y58504D01*
X69823Y54961D02*
Y58465D01*
X69941Y55000D02*
Y58386D01*
X70059Y55079D02*
Y58307D01*
X70177Y55157D02*
Y58189D01*
X70295Y55236D02*
Y58150D01*
X70374Y55354D02*
Y57992D01*
X70453Y55433D02*
Y57953D01*
X70571Y55551D02*
Y57756D01*
X70531Y57717D02*
Y57913D01*
X70650Y55709D02*
Y57638D01*
X70728Y55866D02*
Y57559D01*
X70846Y56063D02*
Y57323D01*
X69862Y58189D02*
X70177D01*
X72946Y61444D02*
X73694D01*
X72513Y58531D02*
Y62389D01*
X72631Y58570D02*
Y62310D01*
X72749Y58531D02*
Y62350D01*
X72828Y58570D02*
Y62271D01*
X72906Y58649D02*
Y62271D01*
X73024Y58649D02*
Y62271D01*
X73143Y58728D02*
Y62232D01*
X73261Y58767D02*
Y62153D01*
X73379Y58846D02*
Y62074D01*
X73497Y58925D02*
Y61956D01*
X73615Y59003D02*
Y61917D01*
X73694Y59121D02*
Y61759D01*
X73772Y59200D02*
Y61720D01*
X73891Y59318D02*
Y61523D01*
X73851Y61484D02*
Y61680D01*
X73969Y59476D02*
Y61405D01*
X74048Y59633D02*
Y61326D01*
X74166Y59830D02*
Y61090D01*
X73182Y61956D02*
X73497D01*
X73936Y56144D02*
X74684D01*
X73503Y53231D02*
Y57089D01*
X73621Y53270D02*
Y57010D01*
X73739Y53231D02*
Y57050D01*
X73818Y53270D02*
Y56971D01*
X73896Y53349D02*
Y56971D01*
X74014Y53349D02*
Y56971D01*
X74133Y53428D02*
Y56932D01*
X74251Y53467D02*
Y56853D01*
X74369Y53546D02*
Y56774D01*
X74487Y53625D02*
Y56656D01*
X74605Y53703D02*
Y56617D01*
X74684Y53821D02*
Y56459D01*
X74762Y53900D02*
Y56420D01*
X74881Y54018D02*
Y56223D01*
X74841Y56184D02*
Y56380D01*
X74959Y54176D02*
Y56105D01*
X75038Y54333D02*
Y56026D01*
X75156Y54530D02*
Y55790D01*
X74172Y56656D02*
X74487D01*
D49*
X30030Y59156D02*
G03*
X30030Y59156I-49J0D01*
G01*
D50*
X30906Y58740D02*
G03*
X30906Y58740I-79J0D01*
G01*
D51*
X38189Y57965D02*
G03*
X38189Y57965I-984J0D01*
G01*
X72138Y45472D02*
G03*
X72138Y45472I-984J0D01*
G01*
X59555D02*
G03*
X59555Y45472I-984J0D01*
G01*
X65846D02*
G03*
X65846Y45472I-984J0D01*
G01*
X70846Y67717D02*
G03*
X70846Y67717I-1161J0D01*
G01*
X30512Y57087D02*
Y59055D01*
X31299Y57087D02*
Y59055D01*
X30512D02*
X31299D01*
X30512Y57087D02*
X31299D01*
X38764Y33386D02*
Y33661D01*
Y33386D02*
X40732D01*
Y33661D01*
X37583D02*
X41874D01*
X37583Y31220D02*
Y33661D01*
Y31220D02*
X41874D01*
Y33661D01*
X33071Y33386D02*
Y33661D01*
Y33386D02*
X35039D01*
Y33661D01*
X31890D02*
X36181D01*
X31890Y31220D02*
Y33661D01*
Y31220D02*
X36181D01*
Y33661D01*
X36339Y59378D02*
X36589Y59128D01*
X36339Y59178D02*
Y59378D01*
X36489D01*
X36339Y59028D02*
X36589Y58778D01*
X36339Y58828D02*
Y59028D01*
X36489D01*
X27150Y33386D02*
Y33661D01*
Y33386D02*
X29118D01*
Y33661D01*
X25968D02*
X30260D01*
X25968Y31220D02*
Y33661D01*
Y31220D02*
X30260D01*
Y33661D01*
X21654Y36295D02*
Y41256D01*
Y37598D02*
X21850D01*
Y37008D02*
Y37598D01*
X21654Y37008D02*
X21850D01*
X21654Y40551D02*
X21850D01*
Y39961D02*
Y40551D01*
X21654Y39961D02*
X21850D01*
X21654Y41256D02*
X23976D01*
Y36295D02*
Y41256D01*
X21654Y36295D02*
X23976D01*
X21555Y43063D02*
Y52039D01*
Y43728D02*
X21752D01*
Y44319D01*
X21555D02*
X21752D01*
X21555Y50728D02*
X21752D01*
Y51319D01*
X21555D02*
X21752D01*
X21555Y43063D02*
X23878D01*
Y52039D01*
X21555D02*
X23878D01*
X23425Y66016D02*
Y74992D01*
X23228Y74327D02*
X23425D01*
X23228Y73736D02*
Y74327D01*
Y73736D02*
X23425D01*
X23228Y67327D02*
X23425D01*
X23228Y66736D02*
Y67327D01*
Y66736D02*
X23425D01*
X21102Y74992D02*
X23425D01*
X21102Y66016D02*
Y74992D01*
Y66016D02*
X23425D01*
X21555Y54732D02*
Y63709D01*
Y55398D02*
X21752D01*
Y55988D01*
X21555D02*
X21752D01*
X21555Y62398D02*
X21752D01*
Y62988D01*
X21555D02*
X21752D01*
X21555Y54732D02*
X23878D01*
Y63709D01*
X21555D02*
X23878D01*
X23425Y77685D02*
Y86661D01*
X23228Y85996D02*
X23425D01*
X23228Y85406D02*
Y85996D01*
Y85406D02*
X23425D01*
X23228Y78996D02*
X23425D01*
X23228Y78405D02*
Y78996D01*
Y78405D02*
X23425D01*
X21102Y86661D02*
X23425D01*
X21102Y77685D02*
Y86661D01*
Y77685D02*
X23425D01*
X72317Y46089D02*
X72567Y46339D01*
X72367D02*
X72567D01*
Y46189D02*
Y46339D01*
X71967Y46089D02*
X72217Y46339D01*
X72017D02*
X72217D01*
Y46189D02*
Y46339D01*
X59734Y46089D02*
X59984Y46339D01*
X59784D02*
X59984D01*
Y46189D02*
Y46339D01*
X59384Y46089D02*
X59634Y46339D01*
X59434D02*
X59634D01*
Y46189D02*
Y46339D01*
X66025Y46089D02*
X66275Y46339D01*
X66075D02*
X66275D01*
Y46189D02*
Y46339D01*
X65675Y46089D02*
X65925Y46339D01*
X65725D02*
X65925D01*
Y46189D02*
Y46339D01*
X70911Y68498D02*
X71161Y68748D01*
X70961D02*
X71161D01*
Y68598D02*
Y68748D01*
X70561Y68498D02*
X70811Y68748D01*
X70611D02*
X70811D01*
Y68598D02*
Y68748D01*
X36776Y49523D02*
X37432D01*
X37104Y49851D02*
Y49195D01*
X36267Y56983D02*
X36605D01*
X36436Y56815D02*
Y57152D01*
X70172Y46410D02*
Y46072D01*
X70004Y46241D02*
X70341D01*
X57590Y46410D02*
Y46072D01*
X57421Y46241D02*
X57758D01*
X63881Y46410D02*
Y46072D01*
X63712Y46241D02*
X64050D01*
X68654Y68854D02*
Y68517D01*
X68485Y68685D02*
X68822D01*
X66796Y58185D02*
X67452D01*
X67124Y58513D02*
Y57857D01*
X70116Y61952D02*
X70772D01*
X70444Y62280D02*
Y61624D01*
X71106Y56652D02*
X71762D01*
X71434Y56980D02*
Y56324D01*
D52*
X30953Y84256D02*
G03*
X31453Y84256I250J0D01*
G01*
X28533Y84256D02*
X30953D01*
X31453D02*
X33873D01*
Y64256D02*
Y84256D01*
X28533Y64256D02*
X33873D01*
X28533D02*
Y84256D01*
D53*
X67534Y48894D02*
G03*
X67534Y48894I-100J0D01*
G01*
X54806Y48697D02*
G03*
X54806Y48697I-100J0D01*
G01*
X64352Y48894D02*
G03*
X64352Y48894I-100J0D01*
G01*
X60261Y81674D02*
G03*
X60261Y81674I-100J0D01*
G01*
D54*
X39791Y87061D02*
X40041Y87311D01*
X39791Y86561D02*
X40041Y86311D01*
X39791Y86561D02*
Y87061D01*
X40541Y87311D02*
X40791Y87061D01*
X40041Y87311D02*
X40541D01*
X42791Y87061D02*
X43041Y87311D01*
X43541D01*
X43791Y87061D01*
X41791D02*
X42041Y87311D01*
X42541D01*
X42791Y87061D01*
X40791D02*
X41041Y87311D01*
X41541D01*
X41791Y87061D01*
X43791D02*
X44041Y87311D01*
X44541D01*
X44791Y87061D01*
X45041Y87311D01*
X45541D01*
X45791Y87061D01*
X40041Y86311D02*
X40541D01*
X40791Y86561D01*
X41041Y86311D01*
X41541D01*
X41791Y86561D01*
X43791D02*
X44041Y86311D01*
X44541D01*
X44791Y86561D01*
X42791D02*
X43041Y86311D01*
X43541D01*
X43791Y86561D01*
X41791D02*
X42041Y86311D01*
X42541D01*
X42791Y86561D01*
X45541Y86311D02*
X45791Y86561D01*
X45041Y86311D02*
X45541D01*
X44791Y86561D02*
X45041Y86311D01*
X45791Y86561D02*
X46041Y86311D01*
X46541D01*
X46791Y86561D01*
X46541Y87311D02*
X46791Y87061D01*
X46041Y87311D02*
X46541D01*
X45791Y87061D02*
X46041Y87311D01*
X46791Y86561D02*
Y87061D01*
X60380Y67035D02*
X60880D01*
X60130Y64285D02*
X60380Y64035D01*
X60880D02*
X61130Y64285D01*
X60380Y64035D02*
X60880D01*
X60130Y64785D02*
X60380Y65035D01*
X60130Y64285D02*
Y64785D01*
Y66285D02*
X60380Y66035D01*
X60130Y66285D02*
Y66785D01*
X60380Y67035D01*
X60130Y65285D02*
X60380Y65035D01*
X60130Y65285D02*
Y65785D01*
X60380Y66035D01*
X61130Y64285D02*
Y64785D01*
X60880Y65035D02*
X61130Y64785D01*
X60880Y65035D02*
X61130Y65285D01*
Y65785D01*
X60880Y66035D02*
X61130Y65785D01*
X60880Y66035D02*
X61130Y66285D01*
Y66785D01*
X60880Y67035D02*
X61130Y66785D01*
X69185Y63030D02*
X69435Y62780D01*
X69935D02*
X70185Y63030D01*
X69435Y62780D02*
X69935D01*
X69185Y63530D02*
X69435Y63780D01*
X69185Y63030D02*
Y63530D01*
Y64030D02*
X69435Y63780D01*
X69185Y64030D02*
Y64530D01*
X69435Y64780D01*
X70185Y63030D02*
Y63530D01*
X69935Y63780D02*
X70185Y63530D01*
X69935Y63780D02*
X70185Y64030D01*
Y64530D01*
X69935Y64780D02*
X70185Y64530D01*
X69435Y64780D02*
X69935D01*
X48173Y74606D02*
X48960D01*
X47567Y73228D02*
X49567D01*
X47567D02*
Y74016D01*
X49567Y73228D02*
Y74016D01*
X47567D02*
X48173Y74606D01*
X48960D02*
X49567Y74016D01*
X45149Y74606D02*
X45937D01*
X44543Y73228D02*
X46543D01*
X44543D02*
Y74016D01*
X46543Y73228D02*
Y74016D01*
X44543D02*
X45149Y74606D01*
X45937D02*
X46543Y74016D01*
X42126Y74606D02*
X42913D01*
X41520Y73228D02*
X43520D01*
X41520D02*
Y74016D01*
X43520Y73228D02*
Y74016D01*
X41520D02*
X42126Y74606D01*
X42913D02*
X43520Y74016D01*
X33752Y38780D02*
X34539D01*
X33146Y37402D02*
X35146D01*
X33146D02*
Y38189D01*
X35146Y37402D02*
Y38189D01*
X33146D02*
X33752Y38780D01*
X34539D02*
X35146Y38189D01*
X44972Y65945D02*
X45760D01*
X44366Y64567D02*
X46366D01*
X44366D02*
Y65354D01*
X46366Y64567D02*
Y65354D01*
X44366D02*
X44972Y65945D01*
X45760D02*
X46366Y65354D01*
X48486Y65945D02*
X49273D01*
X47879Y64567D02*
X49879D01*
X47879D02*
Y65354D01*
X49879Y64567D02*
Y65354D01*
X47879D02*
X48486Y65945D01*
X49273D02*
X49879Y65354D01*
X51999Y65945D02*
X52786D01*
X51392Y64567D02*
X53392D01*
X51392D02*
Y65354D01*
X53392Y64567D02*
Y65354D01*
X51392D02*
X51999Y65945D01*
X52786D02*
X53392Y65354D01*
X55512Y65945D02*
X56299D01*
X54906Y64567D02*
X56906D01*
X54906D02*
Y65354D01*
X56906Y64567D02*
Y65354D01*
X54906D02*
X55512Y65945D01*
X56299D02*
X56906Y65354D01*
X58334Y50984D02*
X59121D01*
X57728Y49606D02*
X59728D01*
X57728D02*
Y50394D01*
X59728Y49606D02*
Y50394D01*
X57728D02*
X58334Y50984D01*
X59121D02*
X59728Y50394D01*
X61516Y50984D02*
X62304D01*
X60910Y49606D02*
X62910D01*
X60910D02*
Y50394D01*
X62910Y49606D02*
Y50394D01*
X60910D02*
X61516Y50984D01*
X62304D02*
X62910Y50394D01*
X71063Y50197D02*
X71850D01*
X70457Y48819D02*
X72457D01*
X70457D02*
Y49606D01*
X72457Y48819D02*
Y49606D01*
X70457D02*
X71063Y50197D01*
X71850D02*
X72457Y49606D01*
X39173Y62598D02*
X39961D01*
X38567Y61220D02*
X40567D01*
X38567D02*
Y62008D01*
X40567Y61220D02*
Y62008D01*
X38567D02*
X39173Y62598D01*
X39961D02*
X40567Y62008D01*
X51196Y74594D02*
X51984D01*
X50590Y73216D02*
X52590D01*
X50590D02*
Y74004D01*
X52590Y73216D02*
Y74004D01*
X50590D02*
X51196Y74594D01*
X51984D02*
X52590Y74004D01*
D55*
X27953Y38780D02*
X28587D01*
X28720Y39780D02*
X29154D01*
X29329Y38780D02*
X29921D01*
X28587Y37780D02*
Y39780D01*
X29154Y37780D02*
Y39780D01*
X29306Y37780D02*
Y39780D01*
X28720Y37780D02*
Y39780D01*
Y37780D02*
X29154D01*
D56*
X38567Y33780D02*
X38685D01*
X38626D01*
Y34134D01*
X38567Y34075D01*
X40693Y34153D02*
X40752Y34212D01*
X40870D01*
X40929Y34153D01*
Y34094D01*
X40870Y34035D01*
X40811D01*
X40870D01*
X40929Y33976D01*
Y33917D01*
X40870Y33858D01*
X40752D01*
X40693Y33917D01*
X32874Y33780D02*
X32992D01*
X32933D01*
Y34134D01*
X32874Y34075D01*
X35000Y34153D02*
X35059Y34212D01*
X35177D01*
X35236Y34153D01*
Y34094D01*
X35177Y34035D01*
X35118D01*
X35177D01*
X35236Y33976D01*
Y33917D01*
X35177Y33858D01*
X35059D01*
X35000Y33917D01*
X26953Y33780D02*
X27071D01*
X27012D01*
Y34134D01*
X26953Y34075D01*
X29079Y34153D02*
X29138Y34212D01*
X29256D01*
X29315Y34153D01*
Y34094D01*
X29256Y34035D01*
X29197D01*
X29256D01*
X29315Y33976D01*
Y33917D01*
X29256Y33858D01*
X29138D01*
X29079Y33917D01*
X21575Y40335D02*
X21221D01*
X21398Y40157D01*
Y40394D01*
X21535Y37244D02*
Y37362D01*
Y37303D01*
X21181D01*
X21240Y37244D01*
X21142Y50933D02*
X21083Y50992D01*
Y51110D01*
X21142Y51169D01*
X21201D01*
X21260Y51110D01*
X21319Y51169D01*
X21378D01*
X21437Y51110D01*
Y50992D01*
X21378Y50933D01*
X21319D01*
X21260Y50992D01*
X21201Y50933D01*
X21142D01*
X21260Y50992D02*
Y51110D01*
X21437Y43925D02*
Y44043D01*
Y43984D01*
X21083D01*
X21142Y43925D01*
X23838Y67122D02*
X23898Y67063D01*
Y66945D01*
X23838Y66886D01*
X23779D01*
X23720Y66945D01*
X23661Y66886D01*
X23602D01*
X23543Y66945D01*
Y67063D01*
X23602Y67122D01*
X23661D01*
X23720Y67063D01*
X23779Y67122D01*
X23838D01*
X23720Y67063D02*
Y66945D01*
X23543Y74130D02*
Y74012D01*
Y74071D01*
X23898D01*
X23838Y74130D01*
X21142Y62603D02*
X21083Y62662D01*
Y62780D01*
X21142Y62839D01*
X21201D01*
X21260Y62780D01*
X21319Y62839D01*
X21378D01*
X21437Y62780D01*
Y62662D01*
X21378Y62603D01*
X21319D01*
X21260Y62662D01*
X21201Y62603D01*
X21142D01*
X21260Y62662D02*
Y62780D01*
X21437Y55595D02*
Y55713D01*
Y55654D01*
X21083D01*
X21142Y55595D01*
X23838Y78791D02*
X23898Y78732D01*
Y78614D01*
X23838Y78555D01*
X23779D01*
X23720Y78614D01*
X23661Y78555D01*
X23602D01*
X23543Y78614D01*
Y78732D01*
X23602Y78791D01*
X23661D01*
X23720Y78732D01*
X23779Y78791D01*
X23838D01*
X23720Y78732D02*
Y78614D01*
X23543Y85799D02*
Y85681D01*
Y85740D01*
X23898D01*
X23838Y85799D01*
D57*
X48162Y74232D02*
X47977D01*
Y73932D01*
X48162D01*
X47977Y74089D02*
X48091D01*
X48507Y74472D02*
Y74172D01*
Y74472D02*
X48635D01*
X48678Y74458D01*
X48692Y74443D01*
X48707Y74415D01*
Y74386D01*
X48692Y74358D01*
X48678Y74343D01*
X48635Y74329D01*
X48507D02*
X48635D01*
X48678Y74315D01*
X48692Y74301D01*
X48707Y74272D01*
Y74229D01*
X48692Y74201D01*
X48678Y74186D01*
X48635Y74172D01*
X48507D01*
X49251Y74161D02*
X49237Y74189D01*
X49208Y74218D01*
X49179Y74232D01*
X49122D01*
X49094Y74218D01*
X49065Y74189D01*
X49051Y74161D01*
X49037Y74118D01*
Y74046D01*
X49051Y74003D01*
X49065Y73975D01*
X49094Y73946D01*
X49122Y73932D01*
X49179D01*
X49208Y73946D01*
X49237Y73975D01*
X49251Y74003D01*
X45139Y74232D02*
X44953D01*
Y73932D01*
X45139D01*
X44953Y74089D02*
X45067D01*
X45483Y74472D02*
Y74172D01*
Y74472D02*
X45612D01*
X45655Y74458D01*
X45669Y74443D01*
X45683Y74415D01*
Y74386D01*
X45669Y74358D01*
X45655Y74343D01*
X45612Y74329D01*
X45483D02*
X45612D01*
X45655Y74315D01*
X45669Y74301D01*
X45683Y74272D01*
Y74229D01*
X45669Y74201D01*
X45655Y74186D01*
X45612Y74172D01*
X45483D01*
X46227Y74161D02*
X46213Y74189D01*
X46185Y74218D01*
X46156Y74232D01*
X46099D01*
X46070Y74218D01*
X46042Y74189D01*
X46027Y74161D01*
X46013Y74118D01*
Y74046D01*
X46027Y74003D01*
X46042Y73975D01*
X46070Y73946D01*
X46099Y73932D01*
X46156D01*
X46185Y73946D01*
X46213Y73975D01*
X46227Y74003D01*
X42115Y74232D02*
X41930D01*
Y73932D01*
X42115D01*
X41930Y74089D02*
X42044D01*
X42460Y74472D02*
Y74172D01*
Y74472D02*
X42588D01*
X42631Y74458D01*
X42645Y74443D01*
X42660Y74415D01*
Y74386D01*
X42645Y74358D01*
X42631Y74343D01*
X42588Y74329D01*
X42460D02*
X42588D01*
X42631Y74315D01*
X42645Y74301D01*
X42660Y74272D01*
Y74229D01*
X42645Y74201D01*
X42631Y74186D01*
X42588Y74172D01*
X42460D01*
X43204Y74161D02*
X43190Y74189D01*
X43161Y74218D01*
X43133Y74232D01*
X43075D01*
X43047Y74218D01*
X43018Y74189D01*
X43004Y74161D01*
X42990Y74118D01*
Y74046D01*
X43004Y74003D01*
X43018Y73975D01*
X43047Y73946D01*
X43075Y73932D01*
X43133D01*
X43161Y73946D01*
X43190Y73975D01*
X43204Y74003D01*
X33741Y38405D02*
X33556D01*
Y38105D01*
X33741D01*
X33556Y38262D02*
X33670D01*
X34086Y38645D02*
Y38345D01*
Y38645D02*
X34214D01*
X34257Y38631D01*
X34271Y38617D01*
X34286Y38588D01*
Y38560D01*
X34271Y38531D01*
X34257Y38517D01*
X34214Y38502D01*
X34086D02*
X34214D01*
X34257Y38488D01*
X34271Y38474D01*
X34286Y38445D01*
Y38402D01*
X34271Y38374D01*
X34257Y38360D01*
X34214Y38345D01*
X34086D01*
X34830Y38334D02*
X34816Y38362D01*
X34787Y38391D01*
X34759Y38405D01*
X34701D01*
X34673Y38391D01*
X34644Y38362D01*
X34630Y38334D01*
X34616Y38291D01*
Y38220D01*
X34630Y38177D01*
X34644Y38148D01*
X34673Y38120D01*
X34701Y38105D01*
X34759D01*
X34787Y38120D01*
X34816Y38148D01*
X34830Y38177D01*
X44962Y65571D02*
X44776D01*
Y65271D01*
X44962D01*
X44776Y65428D02*
X44890D01*
X45306Y65811D02*
Y65511D01*
Y65811D02*
X45435D01*
X45478Y65796D01*
X45492Y65782D01*
X45506Y65753D01*
Y65725D01*
X45492Y65696D01*
X45478Y65682D01*
X45435Y65668D01*
X45306D02*
X45435D01*
X45478Y65653D01*
X45492Y65639D01*
X45506Y65611D01*
Y65568D01*
X45492Y65539D01*
X45478Y65525D01*
X45435Y65511D01*
X45306D01*
X46050Y65499D02*
X46036Y65528D01*
X46008Y65556D01*
X45979Y65571D01*
X45922D01*
X45893Y65556D01*
X45865Y65528D01*
X45850Y65499D01*
X45836Y65456D01*
Y65385D01*
X45850Y65342D01*
X45865Y65313D01*
X45893Y65285D01*
X45922Y65271D01*
X45979D01*
X46008Y65285D01*
X46036Y65313D01*
X46050Y65342D01*
X48475Y65571D02*
X48289D01*
Y65271D01*
X48475D01*
X48289Y65428D02*
X48404D01*
X48819Y65811D02*
Y65511D01*
Y65811D02*
X48948D01*
X48991Y65796D01*
X49005Y65782D01*
X49019Y65753D01*
Y65725D01*
X49005Y65696D01*
X48991Y65682D01*
X48948Y65668D01*
X48819D02*
X48948D01*
X48991Y65653D01*
X49005Y65639D01*
X49019Y65611D01*
Y65568D01*
X49005Y65539D01*
X48991Y65525D01*
X48948Y65511D01*
X48819D01*
X49563Y65499D02*
X49549Y65528D01*
X49521Y65556D01*
X49492Y65571D01*
X49435D01*
X49406Y65556D01*
X49378Y65528D01*
X49364Y65499D01*
X49349Y65456D01*
Y65385D01*
X49364Y65342D01*
X49378Y65313D01*
X49406Y65285D01*
X49435Y65271D01*
X49492D01*
X49521Y65285D01*
X49549Y65313D01*
X49563Y65342D01*
X51988Y65571D02*
X51802D01*
Y65271D01*
X51988D01*
X51802Y65428D02*
X51917D01*
X52332Y65811D02*
Y65511D01*
Y65811D02*
X52461D01*
X52504Y65796D01*
X52518Y65782D01*
X52532Y65753D01*
Y65725D01*
X52518Y65696D01*
X52504Y65682D01*
X52461Y65668D01*
X52332D02*
X52461D01*
X52504Y65653D01*
X52518Y65639D01*
X52532Y65611D01*
Y65568D01*
X52518Y65539D01*
X52504Y65525D01*
X52461Y65511D01*
X52332D01*
X53077Y65499D02*
X53062Y65528D01*
X53034Y65556D01*
X53005Y65571D01*
X52948D01*
X52920Y65556D01*
X52891Y65528D01*
X52877Y65499D01*
X52862Y65456D01*
Y65385D01*
X52877Y65342D01*
X52891Y65313D01*
X52920Y65285D01*
X52948Y65271D01*
X53005D01*
X53034Y65285D01*
X53062Y65313D01*
X53077Y65342D01*
X55501Y65571D02*
X55316D01*
Y65271D01*
X55501D01*
X55316Y65428D02*
X55430D01*
X55846Y65811D02*
Y65511D01*
Y65811D02*
X55974D01*
X56017Y65796D01*
X56031Y65782D01*
X56045Y65753D01*
Y65725D01*
X56031Y65696D01*
X56017Y65682D01*
X55974Y65668D01*
X55846D02*
X55974D01*
X56017Y65653D01*
X56031Y65639D01*
X56045Y65611D01*
Y65568D01*
X56031Y65539D01*
X56017Y65525D01*
X55974Y65511D01*
X55846D01*
X56590Y65499D02*
X56575Y65528D01*
X56547Y65556D01*
X56518Y65571D01*
X56461D01*
X56433Y65556D01*
X56404Y65528D01*
X56390Y65499D01*
X56376Y65456D01*
Y65385D01*
X56390Y65342D01*
X56404Y65313D01*
X56433Y65285D01*
X56461Y65271D01*
X56518D01*
X56547Y65285D01*
X56575Y65313D01*
X56590Y65342D01*
X58323Y50610D02*
X58138D01*
Y50310D01*
X58323D01*
X58138Y50467D02*
X58252D01*
X58668Y50850D02*
Y50550D01*
Y50850D02*
X58796D01*
X58839Y50836D01*
X58853Y50821D01*
X58868Y50793D01*
Y50764D01*
X58853Y50736D01*
X58839Y50721D01*
X58796Y50707D01*
X58668D02*
X58796D01*
X58839Y50693D01*
X58853Y50679D01*
X58868Y50650D01*
Y50607D01*
X58853Y50579D01*
X58839Y50564D01*
X58796Y50550D01*
X58668D01*
X59412Y50539D02*
X59398Y50567D01*
X59369Y50596D01*
X59341Y50610D01*
X59283D01*
X59255Y50596D01*
X59226Y50567D01*
X59212Y50539D01*
X59198Y50496D01*
Y50424D01*
X59212Y50381D01*
X59226Y50353D01*
X59255Y50324D01*
X59283Y50310D01*
X59341D01*
X59369Y50324D01*
X59398Y50353D01*
X59412Y50381D01*
X61506Y50610D02*
X61320D01*
Y50310D01*
X61506D01*
X61320Y50467D02*
X61434D01*
X61850Y50850D02*
Y50550D01*
Y50850D02*
X61979D01*
X62021Y50836D01*
X62036Y50821D01*
X62050Y50793D01*
Y50764D01*
X62036Y50736D01*
X62021Y50721D01*
X61979Y50707D01*
X61850D02*
X61979D01*
X62021Y50693D01*
X62036Y50679D01*
X62050Y50650D01*
Y50607D01*
X62036Y50579D01*
X62021Y50564D01*
X61979Y50550D01*
X61850D01*
X62594Y50539D02*
X62580Y50567D01*
X62551Y50596D01*
X62523Y50610D01*
X62466D01*
X62437Y50596D01*
X62409Y50567D01*
X62394Y50539D01*
X62380Y50496D01*
Y50424D01*
X62394Y50381D01*
X62409Y50353D01*
X62437Y50324D01*
X62466Y50310D01*
X62523D01*
X62551Y50324D01*
X62580Y50353D01*
X62594Y50381D01*
X71052Y49823D02*
X70867D01*
Y49523D01*
X71052D01*
X70867Y49680D02*
X70981D01*
X71397Y50063D02*
Y49763D01*
Y50063D02*
X71525D01*
X71568Y50048D01*
X71582Y50034D01*
X71597Y50005D01*
Y49977D01*
X71582Y49948D01*
X71568Y49934D01*
X71525Y49920D01*
X71397D02*
X71525D01*
X71568Y49905D01*
X71582Y49891D01*
X71597Y49863D01*
Y49820D01*
X71582Y49791D01*
X71568Y49777D01*
X71525Y49763D01*
X71397D01*
X72141Y49751D02*
X72127Y49780D01*
X72098Y49808D01*
X72070Y49823D01*
X72012D01*
X71984Y49808D01*
X71955Y49780D01*
X71941Y49751D01*
X71927Y49708D01*
Y49637D01*
X71941Y49594D01*
X71955Y49565D01*
X71984Y49537D01*
X72012Y49523D01*
X72070D01*
X72098Y49537D01*
X72127Y49565D01*
X72141Y49594D01*
X39163Y62224D02*
X38977D01*
Y61924D01*
X39163D01*
X38977Y62081D02*
X39091D01*
X39507Y62464D02*
Y62164D01*
Y62464D02*
X39635D01*
X39678Y62450D01*
X39693Y62436D01*
X39707Y62407D01*
Y62378D01*
X39693Y62350D01*
X39678Y62336D01*
X39635Y62321D01*
X39507D02*
X39635D01*
X39678Y62307D01*
X39693Y62293D01*
X39707Y62264D01*
Y62221D01*
X39693Y62193D01*
X39678Y62178D01*
X39635Y62164D01*
X39507D01*
X40251Y62153D02*
X40237Y62181D01*
X40208Y62210D01*
X40180Y62224D01*
X40123D01*
X40094Y62210D01*
X40065Y62181D01*
X40051Y62153D01*
X40037Y62110D01*
Y62038D01*
X40051Y61996D01*
X40065Y61967D01*
X40094Y61938D01*
X40123Y61924D01*
X40180D01*
X40208Y61938D01*
X40237Y61967D01*
X40251Y61996D01*
X51186Y74220D02*
X51000D01*
Y73920D01*
X51186D01*
X51000Y74077D02*
X51114D01*
X51530Y74460D02*
Y74160D01*
Y74460D02*
X51659D01*
X51701Y74446D01*
X51716Y74431D01*
X51730Y74403D01*
Y74374D01*
X51716Y74346D01*
X51701Y74331D01*
X51659Y74317D01*
X51530D02*
X51659D01*
X51701Y74303D01*
X51716Y74289D01*
X51730Y74260D01*
Y74217D01*
X51716Y74189D01*
X51701Y74174D01*
X51659Y74160D01*
X51530D01*
X52274Y74149D02*
X52260Y74177D01*
X52231Y74206D01*
X52203Y74220D01*
X52146D01*
X52117Y74206D01*
X52089Y74177D01*
X52074Y74149D01*
X52060Y74106D01*
Y74034D01*
X52074Y73991D01*
X52089Y73963D01*
X52117Y73934D01*
X52146Y73920D01*
X52203D01*
X52231Y73934D01*
X52260Y73963D01*
X52274Y73991D01*
M02*
